G04 #@! TF.GenerationSoftware,KiCad,Pcbnew,9.0.3-9.0.3-0~ubuntu24.04.1*
G04 #@! TF.CreationDate,2025-07-19T17:50:51+10:00*
G04 #@! TF.ProjectId,TPS54202SwitchingPSU,54505335-3432-4303-9253-776974636869,rev?*
G04 #@! TF.SameCoordinates,Original*
G04 #@! TF.FileFunction,Copper,L2,Bot*
G04 #@! TF.FilePolarity,Positive*
%FSLAX46Y46*%
G04 Gerber Fmt 4.6, Leading zero omitted, Abs format (unit mm)*
G04 Created by KiCad (PCBNEW 9.0.3-9.0.3-0~ubuntu24.04.1) date 2025-07-19 17:50:51*
%MOMM*%
%LPD*%
G01*
G04 APERTURE LIST*
G04 #@! TA.AperFunction,ComponentPad*
%ADD10R,1.700000X1.700000*%
G04 #@! TD*
G04 #@! TA.AperFunction,ComponentPad*
%ADD11C,1.700000*%
G04 #@! TD*
G04 #@! TA.AperFunction,ViaPad*
%ADD12C,0.600000*%
G04 #@! TD*
G04 APERTURE END LIST*
D10*
X115189000Y-86360000D03*
D11*
X115189000Y-88900000D03*
D10*
X142240000Y-86360000D03*
D11*
X142240000Y-88900000D03*
D12*
X120500000Y-89900000D03*
X120500000Y-89300000D03*
X133000000Y-89300000D03*
X135600000Y-89300000D03*
X134400000Y-89300000D03*
X120500000Y-88700000D03*
X138400000Y-92000000D03*
X121804000Y-87600000D03*
X119100000Y-89400000D03*
X122600000Y-87600000D03*
X130400000Y-91100000D03*
G04 #@! TA.AperFunction,Conductor*
G36*
X144941648Y-84020185D02*
G01*
X144987403Y-84072989D01*
X144998601Y-84125878D01*
X144901368Y-92876878D01*
X144880940Y-92943694D01*
X144827631Y-92988860D01*
X144777376Y-92999500D01*
X113124500Y-92999500D01*
X113057461Y-92979815D01*
X113011706Y-92927011D01*
X113000500Y-92875500D01*
X113000500Y-85462135D01*
X113838500Y-85462135D01*
X113838500Y-87257870D01*
X113838501Y-87257876D01*
X113844908Y-87317483D01*
X113895202Y-87452328D01*
X113895206Y-87452335D01*
X113981452Y-87567544D01*
X113981455Y-87567547D01*
X114096664Y-87653793D01*
X114096671Y-87653797D01*
X114141618Y-87670561D01*
X114231517Y-87704091D01*
X114291127Y-87710500D01*
X114301685Y-87710499D01*
X114368723Y-87730179D01*
X114389372Y-87746818D01*
X115059591Y-88417037D01*
X114996007Y-88434075D01*
X114881993Y-88499901D01*
X114788901Y-88592993D01*
X114723075Y-88707007D01*
X114706037Y-88770591D01*
X114073728Y-88138282D01*
X114073727Y-88138282D01*
X114034380Y-88192439D01*
X113937904Y-88381782D01*
X113872242Y-88583869D01*
X113872242Y-88583872D01*
X113839000Y-88793753D01*
X113839000Y-89006246D01*
X113872242Y-89216127D01*
X113872242Y-89216130D01*
X113937904Y-89418217D01*
X114034375Y-89607550D01*
X114073728Y-89661716D01*
X114706037Y-89029408D01*
X114723075Y-89092993D01*
X114788901Y-89207007D01*
X114881993Y-89300099D01*
X114996007Y-89365925D01*
X115059590Y-89382962D01*
X114427282Y-90015269D01*
X114427282Y-90015270D01*
X114481449Y-90054624D01*
X114670782Y-90151095D01*
X114872870Y-90216757D01*
X115082754Y-90250000D01*
X115295246Y-90250000D01*
X115505127Y-90216757D01*
X115505130Y-90216757D01*
X115707217Y-90151095D01*
X115896554Y-90054622D01*
X115950716Y-90015270D01*
X115950717Y-90015270D01*
X115318408Y-89382962D01*
X115381993Y-89365925D01*
X115496007Y-89300099D01*
X115589099Y-89207007D01*
X115654925Y-89092993D01*
X115671962Y-89029409D01*
X116304270Y-89661717D01*
X116304270Y-89661716D01*
X116343622Y-89607554D01*
X116440095Y-89418217D01*
X116505757Y-89216130D01*
X116505757Y-89216127D01*
X116539000Y-89006246D01*
X116539000Y-88793753D01*
X116505757Y-88583872D01*
X116505757Y-88583869D01*
X116464824Y-88457889D01*
X116453813Y-88424001D01*
X119594500Y-88424001D01*
X119594500Y-90175163D01*
X119606415Y-90284272D01*
X119606416Y-90284275D01*
X119617970Y-90336542D01*
X119653154Y-90440503D01*
X119731685Y-90560916D01*
X119731753Y-90561021D01*
X119731756Y-90561025D01*
X119774692Y-90609909D01*
X119776091Y-90611631D01*
X119777856Y-90613513D01*
X119887230Y-90707008D01*
X119967913Y-90743201D01*
X120018506Y-90765897D01*
X120085676Y-90785131D01*
X120228225Y-90804651D01*
X136480225Y-90695577D01*
X136585943Y-90683672D01*
X136636622Y-90672469D01*
X136737504Y-90638704D01*
X136782309Y-90609909D01*
X136858537Y-90560920D01*
X136858537Y-90560919D01*
X136858543Y-90560916D01*
X136911347Y-90515161D01*
X137005567Y-90406427D01*
X137065338Y-90275550D01*
X137085023Y-90208511D01*
X137085024Y-90208507D01*
X137105500Y-90066091D01*
X137105500Y-88424000D01*
X137093947Y-88316544D01*
X137082741Y-88265033D01*
X137082637Y-88264722D01*
X137048616Y-88162502D01*
X137048613Y-88162496D01*
X136970828Y-88041462D01*
X136970825Y-88041457D01*
X136970820Y-88041451D01*
X136925076Y-87988659D01*
X136925072Y-87988656D01*
X136925070Y-87988653D01*
X136816336Y-87894433D01*
X136816333Y-87894431D01*
X136816331Y-87894430D01*
X136685465Y-87834664D01*
X136685460Y-87834662D01*
X136685459Y-87834662D01*
X136622987Y-87816318D01*
X136618417Y-87814976D01*
X136543556Y-87804213D01*
X136476000Y-87794500D01*
X123026524Y-87794500D01*
X123004977Y-87796622D01*
X122927907Y-87804212D01*
X122892879Y-87811180D01*
X122880452Y-87813652D01*
X122880449Y-87813652D01*
X122880436Y-87813656D01*
X122785644Y-87842411D01*
X122785630Y-87842416D01*
X122697330Y-87878990D01*
X122674074Y-87886044D01*
X122674071Y-87886045D01*
X122641033Y-87892617D01*
X122616841Y-87895000D01*
X122583159Y-87895000D01*
X122558969Y-87892617D01*
X122525924Y-87886044D01*
X122502665Y-87878988D01*
X122442911Y-87854237D01*
X122442901Y-87854233D01*
X122442895Y-87854231D01*
X122442893Y-87854230D01*
X122432630Y-87850609D01*
X122391866Y-87836228D01*
X122391860Y-87836226D01*
X122366439Y-87828761D01*
X122313778Y-87816318D01*
X122313774Y-87816317D01*
X122205933Y-87812464D01*
X122169987Y-87811180D01*
X122169986Y-87811180D01*
X122100518Y-87818648D01*
X122100515Y-87818648D01*
X122100510Y-87818649D01*
X122100507Y-87818649D01*
X121961106Y-87854230D01*
X121961092Y-87854234D01*
X121901332Y-87878988D01*
X121878077Y-87886043D01*
X121878074Y-87886044D01*
X121861234Y-87889393D01*
X121845031Y-87892617D01*
X121820839Y-87895000D01*
X121787161Y-87895000D01*
X121762969Y-87892617D01*
X121740761Y-87888199D01*
X121729922Y-87886043D01*
X121706667Y-87878988D01*
X121640018Y-87851383D01*
X121618371Y-87842417D01*
X121618364Y-87842415D01*
X121618354Y-87842411D01*
X121523563Y-87813656D01*
X121523554Y-87813653D01*
X121523548Y-87813652D01*
X121500462Y-87809060D01*
X121476092Y-87804212D01*
X121401664Y-87796882D01*
X121377476Y-87794500D01*
X120224000Y-87794500D01*
X120223991Y-87794500D01*
X120223990Y-87794501D01*
X120116549Y-87806052D01*
X120116537Y-87806054D01*
X120065027Y-87817260D01*
X119962502Y-87851383D01*
X119962496Y-87851386D01*
X119841462Y-87929171D01*
X119841451Y-87929179D01*
X119788659Y-87974923D01*
X119694433Y-88083664D01*
X119694430Y-88083668D01*
X119634664Y-88214534D01*
X119614976Y-88281582D01*
X119609949Y-88316549D01*
X119594502Y-88423990D01*
X119594500Y-88424001D01*
X116453813Y-88424001D01*
X116440095Y-88381782D01*
X116343624Y-88192449D01*
X116304270Y-88138282D01*
X116304269Y-88138282D01*
X115671962Y-88770590D01*
X115654925Y-88707007D01*
X115589099Y-88592993D01*
X115496007Y-88499901D01*
X115381993Y-88434075D01*
X115318409Y-88417037D01*
X115988627Y-87746818D01*
X116049950Y-87713333D01*
X116076307Y-87710499D01*
X116086872Y-87710499D01*
X116146483Y-87704091D01*
X116281331Y-87653796D01*
X116396546Y-87567546D01*
X116482796Y-87452331D01*
X116533091Y-87317483D01*
X116539500Y-87257873D01*
X116539499Y-85462135D01*
X140889500Y-85462135D01*
X140889500Y-87257870D01*
X140889501Y-87257876D01*
X140895908Y-87317483D01*
X140946202Y-87452328D01*
X140946206Y-87452335D01*
X141032452Y-87567544D01*
X141032455Y-87567547D01*
X141147664Y-87653793D01*
X141147671Y-87653797D01*
X141192618Y-87670561D01*
X141282517Y-87704091D01*
X141342127Y-87710500D01*
X141352685Y-87710499D01*
X141419723Y-87730179D01*
X141440372Y-87746818D01*
X142110591Y-88417037D01*
X142047007Y-88434075D01*
X141932993Y-88499901D01*
X141839901Y-88592993D01*
X141774075Y-88707007D01*
X141757037Y-88770591D01*
X141124728Y-88138282D01*
X141124727Y-88138282D01*
X141085380Y-88192439D01*
X140988904Y-88381782D01*
X140923242Y-88583869D01*
X140923242Y-88583872D01*
X140890000Y-88793753D01*
X140890000Y-89006246D01*
X140923242Y-89216127D01*
X140923242Y-89216130D01*
X140988904Y-89418217D01*
X141085375Y-89607550D01*
X141124728Y-89661716D01*
X141757037Y-89029408D01*
X141774075Y-89092993D01*
X141839901Y-89207007D01*
X141932993Y-89300099D01*
X142047007Y-89365925D01*
X142110590Y-89382962D01*
X141478282Y-90015269D01*
X141478282Y-90015270D01*
X141532449Y-90054624D01*
X141721782Y-90151095D01*
X141923870Y-90216757D01*
X142133754Y-90250000D01*
X142346246Y-90250000D01*
X142556127Y-90216757D01*
X142556130Y-90216757D01*
X142758217Y-90151095D01*
X142947554Y-90054622D01*
X143001716Y-90015270D01*
X143001717Y-90015270D01*
X142369408Y-89382962D01*
X142432993Y-89365925D01*
X142547007Y-89300099D01*
X142640099Y-89207007D01*
X142705925Y-89092993D01*
X142722962Y-89029408D01*
X143355270Y-89661717D01*
X143355270Y-89661716D01*
X143394622Y-89607554D01*
X143491095Y-89418217D01*
X143556757Y-89216130D01*
X143556757Y-89216127D01*
X143590000Y-89006246D01*
X143590000Y-88793753D01*
X143556757Y-88583872D01*
X143556757Y-88583869D01*
X143491095Y-88381782D01*
X143394624Y-88192449D01*
X143355270Y-88138282D01*
X143355269Y-88138282D01*
X142722962Y-88770590D01*
X142705925Y-88707007D01*
X142640099Y-88592993D01*
X142547007Y-88499901D01*
X142432993Y-88434075D01*
X142369409Y-88417037D01*
X143039627Y-87746818D01*
X143100950Y-87713333D01*
X143127307Y-87710499D01*
X143137872Y-87710499D01*
X143197483Y-87704091D01*
X143332331Y-87653796D01*
X143447546Y-87567546D01*
X143533796Y-87452331D01*
X143584091Y-87317483D01*
X143590500Y-87257873D01*
X143590499Y-85462128D01*
X143584091Y-85402517D01*
X143533796Y-85267669D01*
X143533795Y-85267668D01*
X143533793Y-85267664D01*
X143447547Y-85152455D01*
X143447544Y-85152452D01*
X143332335Y-85066206D01*
X143332328Y-85066202D01*
X143197482Y-85015908D01*
X143197483Y-85015908D01*
X143137883Y-85009501D01*
X143137881Y-85009500D01*
X143137873Y-85009500D01*
X143137864Y-85009500D01*
X141342129Y-85009500D01*
X141342123Y-85009501D01*
X141282516Y-85015908D01*
X141147671Y-85066202D01*
X141147664Y-85066206D01*
X141032455Y-85152452D01*
X141032452Y-85152455D01*
X140946206Y-85267664D01*
X140946202Y-85267671D01*
X140895908Y-85402517D01*
X140889501Y-85462116D01*
X140889501Y-85462123D01*
X140889500Y-85462135D01*
X116539499Y-85462135D01*
X116539499Y-85462128D01*
X116533091Y-85402517D01*
X116482796Y-85267669D01*
X116482795Y-85267668D01*
X116482793Y-85267664D01*
X116396547Y-85152455D01*
X116396544Y-85152452D01*
X116281335Y-85066206D01*
X116281328Y-85066202D01*
X116146482Y-85015908D01*
X116146483Y-85015908D01*
X116086883Y-85009501D01*
X116086881Y-85009500D01*
X116086873Y-85009500D01*
X116086864Y-85009500D01*
X114291129Y-85009500D01*
X114291123Y-85009501D01*
X114231516Y-85015908D01*
X114096671Y-85066202D01*
X114096664Y-85066206D01*
X113981455Y-85152452D01*
X113981452Y-85152455D01*
X113895206Y-85267664D01*
X113895202Y-85267671D01*
X113844908Y-85402517D01*
X113838501Y-85462116D01*
X113838501Y-85462123D01*
X113838500Y-85462135D01*
X113000500Y-85462135D01*
X113000500Y-84223299D01*
X113020185Y-84156260D01*
X113072989Y-84110505D01*
X113124105Y-84099301D01*
X144839179Y-84000501D01*
X144839565Y-84000500D01*
X144874609Y-84000500D01*
X144941648Y-84020185D01*
G37*
G04 #@! TD.AperFunction*
G04 #@! TA.AperFunction,Conductor*
G36*
X121424928Y-88309439D02*
G01*
X121570498Y-88369735D01*
X121570503Y-88369737D01*
X121725153Y-88400499D01*
X121725156Y-88400500D01*
X121725158Y-88400500D01*
X121882844Y-88400500D01*
X121882845Y-88400499D01*
X122037497Y-88369737D01*
X122154549Y-88321252D01*
X122224017Y-88313784D01*
X122249447Y-88321251D01*
X122366503Y-88369737D01*
X122521153Y-88400499D01*
X122521156Y-88400500D01*
X122521158Y-88400500D01*
X122678844Y-88400500D01*
X122678845Y-88400499D01*
X122833497Y-88369737D01*
X122882348Y-88349502D01*
X122979072Y-88309439D01*
X123026524Y-88300000D01*
X136476000Y-88300000D01*
X136543039Y-88319685D01*
X136588794Y-88372489D01*
X136600000Y-88424000D01*
X136600000Y-90066091D01*
X136580315Y-90133130D01*
X136527511Y-90178885D01*
X136476832Y-90190088D01*
X120224832Y-90299162D01*
X120157662Y-90279928D01*
X120111554Y-90227432D01*
X120100000Y-90175165D01*
X120100000Y-88424000D01*
X120119685Y-88356961D01*
X120172489Y-88311206D01*
X120224000Y-88300000D01*
X121377476Y-88300000D01*
X121424928Y-88309439D01*
G37*
G04 #@! TD.AperFunction*
M02*
