G04 #@! TF.GenerationSoftware,KiCad,Pcbnew,9.0.2-9.0.2-0~ubuntu24.04.1*
G04 #@! TF.CreationDate,2025-07-09T15:12:52+10:00*
G04 #@! TF.ProjectId,TPS54202SwitchingPSU,54505335-3432-4303-9253-776974636869,rev?*
G04 #@! TF.SameCoordinates,Original*
G04 #@! TF.FileFunction,Copper,L1,Top*
G04 #@! TF.FilePolarity,Positive*
%FSLAX46Y46*%
G04 Gerber Fmt 4.6, Leading zero omitted, Abs format (unit mm)*
G04 Created by KiCad (PCBNEW 9.0.2-9.0.2-0~ubuntu24.04.1) date 2025-07-09 15:12:52*
%MOMM*%
%LPD*%
G01*
G04 APERTURE LIST*
G04 Aperture macros list*
%AMRoundRect*
0 Rectangle with rounded corners*
0 $1 Rounding radius*
0 $2 $3 $4 $5 $6 $7 $8 $9 X,Y pos of 4 corners*
0 Add a 4 corners polygon primitive as box body*
4,1,4,$2,$3,$4,$5,$6,$7,$8,$9,$2,$3,0*
0 Add four circle primitives for the rounded corners*
1,1,$1+$1,$2,$3*
1,1,$1+$1,$4,$5*
1,1,$1+$1,$6,$7*
1,1,$1+$1,$8,$9*
0 Add four rect primitives between the rounded corners*
20,1,$1+$1,$2,$3,$4,$5,0*
20,1,$1+$1,$4,$5,$6,$7,0*
20,1,$1+$1,$6,$7,$8,$9,0*
20,1,$1+$1,$8,$9,$2,$3,0*%
G04 Aperture macros list end*
G04 #@! TA.AperFunction,SMDPad,CuDef*
%ADD10RoundRect,0.250000X0.400000X0.625000X-0.400000X0.625000X-0.400000X-0.625000X0.400000X-0.625000X0*%
G04 #@! TD*
G04 #@! TA.AperFunction,SMDPad,CuDef*
%ADD11RoundRect,0.250000X-0.400000X-0.625000X0.400000X-0.625000X0.400000X0.625000X-0.400000X0.625000X0*%
G04 #@! TD*
G04 #@! TA.AperFunction,ComponentPad*
%ADD12R,1.700000X1.700000*%
G04 #@! TD*
G04 #@! TA.AperFunction,ComponentPad*
%ADD13C,1.700000*%
G04 #@! TD*
G04 #@! TA.AperFunction,SMDPad,CuDef*
%ADD14RoundRect,0.250000X-1.100000X0.412500X-1.100000X-0.412500X1.100000X-0.412500X1.100000X0.412500X0*%
G04 #@! TD*
G04 #@! TA.AperFunction,SMDPad,CuDef*
%ADD15RoundRect,0.250000X-0.650000X0.412500X-0.650000X-0.412500X0.650000X-0.412500X0.650000X0.412500X0*%
G04 #@! TD*
G04 #@! TA.AperFunction,SMDPad,CuDef*
%ADD16RoundRect,0.100000X-0.217500X-0.100000X0.217500X-0.100000X0.217500X0.100000X-0.217500X0.100000X0*%
G04 #@! TD*
G04 #@! TA.AperFunction,SMDPad,CuDef*
%ADD17RoundRect,0.250000X0.337500X0.475000X-0.337500X0.475000X-0.337500X-0.475000X0.337500X-0.475000X0*%
G04 #@! TD*
G04 #@! TA.AperFunction,SMDPad,CuDef*
%ADD18R,5.100000X2.350000*%
G04 #@! TD*
G04 #@! TA.AperFunction,SMDPad,CuDef*
%ADD19R,5.150000X2.350000*%
G04 #@! TD*
G04 #@! TA.AperFunction,SMDPad,CuDef*
%ADD20RoundRect,0.150000X-0.512500X-0.150000X0.512500X-0.150000X0.512500X0.150000X-0.512500X0.150000X0*%
G04 #@! TD*
G04 #@! TA.AperFunction,ViaPad*
%ADD21C,0.600000*%
G04 #@! TD*
G04 #@! TA.AperFunction,Conductor*
%ADD22C,1.000000*%
G04 #@! TD*
G04 #@! TA.AperFunction,Conductor*
%ADD23C,0.500000*%
G04 #@! TD*
G04 #@! TA.AperFunction,Conductor*
%ADD24C,2.000000*%
G04 #@! TD*
G04 #@! TA.AperFunction,Conductor*
%ADD25C,1.500000*%
G04 #@! TD*
G04 #@! TA.AperFunction,Conductor*
%ADD26C,0.200000*%
G04 #@! TD*
G04 APERTURE END LIST*
D10*
X129846000Y-87000000D03*
X126746000Y-87000000D03*
D11*
X126798000Y-89789000D03*
X129898000Y-89789000D03*
D12*
X115189000Y-87503000D03*
D13*
X115189000Y-90043000D03*
D14*
X139700000Y-87503000D03*
X139700000Y-90628000D03*
D15*
X119126000Y-87376000D03*
X119126000Y-90501000D03*
D16*
X128065000Y-92000000D03*
X128880000Y-92000000D03*
D17*
X123952000Y-85852000D03*
X121877000Y-85852000D03*
D12*
X143764000Y-87503000D03*
D13*
X143764000Y-90043000D03*
D18*
X134391000Y-91391000D03*
D19*
X134366000Y-86741000D03*
D20*
X121804000Y-89286000D03*
X121804000Y-90236000D03*
X121804000Y-91186000D03*
X124079000Y-91186000D03*
X124079000Y-90236000D03*
X124079000Y-89286000D03*
D21*
X120500000Y-88700000D03*
X120500000Y-89900000D03*
X133000000Y-89300000D03*
X135600000Y-89300000D03*
X134400000Y-89300000D03*
X122900000Y-92000000D03*
X129900000Y-91500000D03*
X122600000Y-87600000D03*
X119100000Y-89400000D03*
X121804000Y-87600000D03*
X139700000Y-92100000D03*
X139700000Y-92800000D03*
X120500000Y-89300000D03*
D22*
X116797000Y-87503000D02*
X116800000Y-87500000D01*
X115189000Y-87503000D02*
X116797000Y-87503000D01*
X113503000Y-87503000D02*
X113500000Y-87500000D01*
X115189000Y-87503000D02*
X113503000Y-87503000D01*
X115189000Y-85611000D02*
X115200000Y-85600000D01*
X115189000Y-87503000D02*
X115189000Y-85611000D01*
X119102000Y-87400000D02*
X117700000Y-87400000D01*
X119126000Y-87376000D02*
X119102000Y-87400000D01*
D23*
X121414000Y-91186000D02*
X121400000Y-91200000D01*
X121400000Y-91200000D02*
X121400000Y-92100000D01*
X121400000Y-92100000D02*
X121800000Y-92100000D01*
X121800000Y-92100000D02*
X121804000Y-92096000D01*
X121804000Y-92096000D02*
X121804000Y-91186000D01*
D22*
X139700000Y-87503000D02*
X139700000Y-85000000D01*
D24*
X134300000Y-86675000D02*
X134300000Y-84900000D01*
X134366000Y-86741000D02*
X134300000Y-86675000D01*
D23*
X120500000Y-89900000D02*
X120500000Y-89300000D01*
X120500000Y-89900000D02*
X120836000Y-90236000D01*
X120836000Y-90236000D02*
X121804000Y-90236000D01*
X120500000Y-88700000D02*
X120500000Y-86200000D01*
X120500000Y-86200000D02*
X120848000Y-85852000D01*
X120848000Y-85852000D02*
X121877000Y-85852000D01*
X120500000Y-89300000D02*
X120500000Y-88700000D01*
D25*
X133000000Y-89300000D02*
X133000000Y-89100000D01*
X135600000Y-89300000D02*
X135600000Y-89100000D01*
X134391000Y-91391000D02*
X134782000Y-91000000D01*
X134782000Y-91000000D02*
X135600000Y-91000000D01*
X135600000Y-91000000D02*
X135600000Y-89300000D01*
X133000000Y-89982000D02*
X133000000Y-89300000D01*
X134391000Y-91391000D02*
X134200000Y-91200000D01*
X134200000Y-91200000D02*
X133000000Y-91200000D01*
X133000000Y-91200000D02*
X133000000Y-89982000D01*
X133000000Y-89982000D02*
X134400000Y-91382000D01*
D24*
X134400000Y-91382000D02*
X134400000Y-89300000D01*
D23*
X124079000Y-90236000D02*
X123164000Y-90236000D01*
X123164000Y-90236000D02*
X122900000Y-90500000D01*
X122900000Y-90500000D02*
X122900000Y-92000000D01*
X129898000Y-91498000D02*
X129900000Y-91500000D01*
X129898000Y-89789000D02*
X129898000Y-91498000D01*
D22*
X121804000Y-87600000D02*
X122600000Y-87600000D01*
D26*
X124236000Y-90236000D02*
X124300000Y-90300000D01*
D22*
X119100000Y-90475000D02*
X119100000Y-89400000D01*
D23*
X121804000Y-88200000D02*
X121804000Y-87600000D01*
X121804000Y-87600000D02*
X121804000Y-87504000D01*
X121804000Y-89286000D02*
X121804000Y-88200000D01*
X121800000Y-87500000D02*
X121804000Y-87504000D01*
D22*
X119126000Y-90501000D02*
X119100000Y-90475000D01*
X139700000Y-92100000D02*
X139700000Y-92800000D01*
X139700000Y-90628000D02*
X139700000Y-92100000D01*
D23*
X126798000Y-89789000D02*
X126746000Y-89737000D01*
X126746000Y-89737000D02*
X126746000Y-87000000D01*
X126798000Y-91102000D02*
X126798000Y-91798000D01*
X126798000Y-91798000D02*
X127000000Y-92000000D01*
X127000000Y-92000000D02*
X128065000Y-92000000D01*
X126686000Y-91186000D02*
X126700000Y-91200000D01*
X124079000Y-91186000D02*
X126686000Y-91186000D01*
X126700000Y-91200000D02*
X126798000Y-91102000D01*
X126798000Y-91102000D02*
X126798000Y-89789000D01*
D22*
X119000000Y-90375000D02*
X119126000Y-90501000D01*
D23*
X124079000Y-89286000D02*
X124079000Y-85979000D01*
X124079000Y-85979000D02*
X123952000Y-85852000D01*
X134366000Y-86741000D02*
X135128000Y-87503000D01*
X129846000Y-87000000D02*
X134107000Y-87000000D01*
X134107000Y-87000000D02*
X134366000Y-86741000D01*
X129846000Y-87000000D02*
X129000000Y-87000000D01*
X128700000Y-87300000D02*
X128700000Y-90900000D01*
X128900000Y-91980000D02*
X128880000Y-92000000D01*
X129000000Y-87000000D02*
X128700000Y-87300000D01*
X128700000Y-90900000D02*
X128900000Y-91100000D01*
X128900000Y-91100000D02*
X128900000Y-91980000D01*
X118999000Y-87503000D02*
X119126000Y-87376000D01*
G04 #@! TA.AperFunction,Conductor*
G36*
X117943039Y-83520185D02*
G01*
X117988794Y-83572989D01*
X118000000Y-83624500D01*
X118000000Y-89451770D01*
X117980315Y-89518809D01*
X117963681Y-89539451D01*
X117883289Y-89619842D01*
X117791187Y-89769163D01*
X117791186Y-89769166D01*
X117736001Y-89935703D01*
X117736001Y-89935704D01*
X117736000Y-89935704D01*
X117725500Y-90038483D01*
X117725500Y-90963501D01*
X117725501Y-90963519D01*
X117736000Y-91066296D01*
X117736001Y-91066299D01*
X117791185Y-91232831D01*
X117791187Y-91232836D01*
X117883289Y-91382157D01*
X117963681Y-91462549D01*
X117997166Y-91523872D01*
X118000000Y-91550230D01*
X118000000Y-91700000D01*
X121876000Y-91700000D01*
X121943039Y-91719685D01*
X121988794Y-91772489D01*
X122000000Y-91824000D01*
X122000000Y-93375500D01*
X121980315Y-93442539D01*
X121927511Y-93488294D01*
X121876000Y-93499500D01*
X116824000Y-93499500D01*
X116756961Y-93479815D01*
X116711206Y-93427011D01*
X116700000Y-93375500D01*
X116700000Y-88600000D01*
X116655632Y-88600000D01*
X116588593Y-88580315D01*
X116542838Y-88527511D01*
X116532343Y-88462743D01*
X116538999Y-88400841D01*
X116539000Y-88400827D01*
X116539000Y-87753000D01*
X115622012Y-87753000D01*
X115654925Y-87695993D01*
X115689000Y-87568826D01*
X115689000Y-87437174D01*
X115654925Y-87310007D01*
X115622012Y-87253000D01*
X116539000Y-87253000D01*
X116539000Y-86605172D01*
X116538999Y-86605155D01*
X116532598Y-86545627D01*
X116532596Y-86545620D01*
X116482354Y-86410913D01*
X116482350Y-86410906D01*
X116396190Y-86295812D01*
X116396187Y-86295809D01*
X116281093Y-86209649D01*
X116281086Y-86209645D01*
X116146379Y-86159403D01*
X116146372Y-86159401D01*
X116086844Y-86153000D01*
X115439000Y-86153000D01*
X115439000Y-87069988D01*
X115381993Y-87037075D01*
X115254826Y-87003000D01*
X115123174Y-87003000D01*
X114996007Y-87037075D01*
X114939000Y-87069988D01*
X114939000Y-86153000D01*
X114291155Y-86153000D01*
X114231627Y-86159401D01*
X114231620Y-86159403D01*
X114096913Y-86209645D01*
X114096906Y-86209649D01*
X113981812Y-86295809D01*
X113981809Y-86295812D01*
X113895649Y-86410906D01*
X113895645Y-86410913D01*
X113845403Y-86545620D01*
X113845401Y-86545627D01*
X113839000Y-86605155D01*
X113839000Y-87253000D01*
X114755988Y-87253000D01*
X114723075Y-87310007D01*
X114689000Y-87437174D01*
X114689000Y-87568826D01*
X114723075Y-87695993D01*
X114755988Y-87753000D01*
X113839000Y-87753000D01*
X113839000Y-88400841D01*
X113845657Y-88462743D01*
X113833253Y-88531502D01*
X113785643Y-88582641D01*
X113722368Y-88600000D01*
X112624500Y-88600000D01*
X112557461Y-88580315D01*
X112511706Y-88527511D01*
X112500500Y-88476000D01*
X112500500Y-83624500D01*
X112520185Y-83557461D01*
X112572989Y-83511706D01*
X112624500Y-83500500D01*
X117876000Y-83500500D01*
X117943039Y-83520185D01*
G37*
G04 #@! TD.AperFunction*
G04 #@! TA.AperFunction,Conductor*
G36*
X146442539Y-83520185D02*
G01*
X146488294Y-83572989D01*
X146499500Y-83624500D01*
X146499500Y-88276000D01*
X146479815Y-88343039D01*
X146427011Y-88388794D01*
X146375500Y-88400000D01*
X145238000Y-88400000D01*
X145170961Y-88380315D01*
X145125206Y-88327511D01*
X145114000Y-88276000D01*
X145114000Y-87753000D01*
X144197012Y-87753000D01*
X144229925Y-87695993D01*
X144264000Y-87568826D01*
X144264000Y-87437174D01*
X144229925Y-87310007D01*
X144197012Y-87253000D01*
X145114000Y-87253000D01*
X145114000Y-86605172D01*
X145113999Y-86605155D01*
X145107598Y-86545627D01*
X145107596Y-86545620D01*
X145057354Y-86410913D01*
X145057350Y-86410906D01*
X144971190Y-86295812D01*
X144971187Y-86295809D01*
X144856093Y-86209649D01*
X144856086Y-86209645D01*
X144721379Y-86159403D01*
X144721372Y-86159401D01*
X144661844Y-86153000D01*
X144014000Y-86153000D01*
X144014000Y-87069988D01*
X143956993Y-87037075D01*
X143829826Y-87003000D01*
X143698174Y-87003000D01*
X143571007Y-87037075D01*
X143514000Y-87069988D01*
X143514000Y-86153000D01*
X142866155Y-86153000D01*
X142806627Y-86159401D01*
X142806620Y-86159403D01*
X142671913Y-86209645D01*
X142671906Y-86209649D01*
X142556812Y-86295809D01*
X142556809Y-86295812D01*
X142470649Y-86410906D01*
X142470645Y-86410913D01*
X142420403Y-86545620D01*
X142420401Y-86545627D01*
X142414000Y-86605155D01*
X142414000Y-87253000D01*
X143330988Y-87253000D01*
X143298075Y-87310007D01*
X143264000Y-87437174D01*
X143264000Y-87568826D01*
X143298075Y-87695993D01*
X143330988Y-87753000D01*
X142414000Y-87753000D01*
X142414000Y-88276000D01*
X142394315Y-88343039D01*
X142341511Y-88388794D01*
X142290000Y-88400000D01*
X141824000Y-88400000D01*
X141756961Y-88380315D01*
X141711206Y-88327511D01*
X141700000Y-88276000D01*
X141700000Y-86500000D01*
X137524000Y-86500000D01*
X137456961Y-86480315D01*
X137411206Y-86427511D01*
X137400000Y-86376000D01*
X137400000Y-85400000D01*
X131624000Y-85400000D01*
X131556961Y-85380315D01*
X131511206Y-85327511D01*
X131500000Y-85276000D01*
X131500000Y-83624500D01*
X131519685Y-83557461D01*
X131572489Y-83511706D01*
X131624000Y-83500500D01*
X146375500Y-83500500D01*
X146442539Y-83520185D01*
G37*
G04 #@! TD.AperFunction*
G04 #@! TA.AperFunction,Conductor*
G36*
X119610490Y-88708350D02*
G01*
X119639557Y-88714140D01*
X119643643Y-88718085D01*
X119649092Y-88719685D01*
X119668496Y-88742078D01*
X119689824Y-88762669D01*
X119692719Y-88770033D01*
X119694847Y-88772489D01*
X119700196Y-88789054D01*
X119702737Y-88795516D01*
X119703243Y-88797663D01*
X119730263Y-88933497D01*
X119741980Y-88961784D01*
X119744277Y-88971516D01*
X119740519Y-89041284D01*
X119738161Y-89047433D01*
X119730263Y-89066503D01*
X119730262Y-89066506D01*
X119730260Y-89066511D01*
X119699500Y-89221153D01*
X119699500Y-89221158D01*
X119699500Y-89378842D01*
X119699500Y-89378844D01*
X119699499Y-89378844D01*
X119714014Y-89451808D01*
X119707787Y-89521399D01*
X119664925Y-89576577D01*
X119599035Y-89599822D01*
X119592397Y-89600000D01*
X118627291Y-89600000D01*
X118560252Y-89580315D01*
X118514497Y-89527511D01*
X118504553Y-89458354D01*
X118505500Y-89451770D01*
X118505500Y-88824000D01*
X118525185Y-88756961D01*
X118577989Y-88711206D01*
X118629500Y-88700000D01*
X119582053Y-88700000D01*
X119610490Y-88708350D01*
G37*
G04 #@! TD.AperFunction*
M02*
