G04 #@! TF.GenerationSoftware,KiCad,Pcbnew,9.0.3-9.0.3-0~ubuntu24.04.1*
G04 #@! TF.CreationDate,2025-07-19T17:50:51+10:00*
G04 #@! TF.ProjectId,TPS54202SwitchingPSU,54505335-3432-4303-9253-776974636869,rev?*
G04 #@! TF.SameCoordinates,Original*
G04 #@! TF.FileFunction,Legend,Bot*
G04 #@! TF.FilePolarity,Positive*
%FSLAX46Y46*%
G04 Gerber Fmt 4.6, Leading zero omitted, Abs format (unit mm)*
G04 Created by KiCad (PCBNEW 9.0.3-9.0.3-0~ubuntu24.04.1) date 2025-07-19 17:50:51*
%MOMM*%
%LPD*%
G01*
G04 APERTURE LIST*
%ADD10C,0.300000*%
G04 APERTURE END LIST*
D10*
X141216917Y-92272257D02*
X140502632Y-92272257D01*
X141359774Y-92700828D02*
X140859774Y-91200828D01*
X140859774Y-91200828D02*
X140359774Y-92700828D01*
X139859775Y-92700828D02*
X139859775Y-91200828D01*
X139859775Y-91200828D02*
X139502632Y-91200828D01*
X139502632Y-91200828D02*
X139288346Y-91272257D01*
X139288346Y-91272257D02*
X139145489Y-91415114D01*
X139145489Y-91415114D02*
X139074060Y-91557971D01*
X139074060Y-91557971D02*
X139002632Y-91843685D01*
X139002632Y-91843685D02*
X139002632Y-92057971D01*
X139002632Y-92057971D02*
X139074060Y-92343685D01*
X139074060Y-92343685D02*
X139145489Y-92486542D01*
X139145489Y-92486542D02*
X139288346Y-92629400D01*
X139288346Y-92629400D02*
X139502632Y-92700828D01*
X139502632Y-92700828D02*
X139859775Y-92700828D01*
X136431203Y-91272257D02*
X136574061Y-91200828D01*
X136574061Y-91200828D02*
X136788346Y-91200828D01*
X136788346Y-91200828D02*
X137002632Y-91272257D01*
X137002632Y-91272257D02*
X137145489Y-91415114D01*
X137145489Y-91415114D02*
X137216918Y-91557971D01*
X137216918Y-91557971D02*
X137288346Y-91843685D01*
X137288346Y-91843685D02*
X137288346Y-92057971D01*
X137288346Y-92057971D02*
X137216918Y-92343685D01*
X137216918Y-92343685D02*
X137145489Y-92486542D01*
X137145489Y-92486542D02*
X137002632Y-92629400D01*
X137002632Y-92629400D02*
X136788346Y-92700828D01*
X136788346Y-92700828D02*
X136645489Y-92700828D01*
X136645489Y-92700828D02*
X136431203Y-92629400D01*
X136431203Y-92629400D02*
X136359775Y-92557971D01*
X136359775Y-92557971D02*
X136359775Y-92057971D01*
X136359775Y-92057971D02*
X136645489Y-92057971D01*
X135074061Y-92700828D02*
X135074061Y-91915114D01*
X135074061Y-91915114D02*
X135145489Y-91772257D01*
X135145489Y-91772257D02*
X135288346Y-91700828D01*
X135288346Y-91700828D02*
X135574061Y-91700828D01*
X135574061Y-91700828D02*
X135716918Y-91772257D01*
X135074061Y-92629400D02*
X135216918Y-92700828D01*
X135216918Y-92700828D02*
X135574061Y-92700828D01*
X135574061Y-92700828D02*
X135716918Y-92629400D01*
X135716918Y-92629400D02*
X135788346Y-92486542D01*
X135788346Y-92486542D02*
X135788346Y-92343685D01*
X135788346Y-92343685D02*
X135716918Y-92200828D01*
X135716918Y-92200828D02*
X135574061Y-92129400D01*
X135574061Y-92129400D02*
X135216918Y-92129400D01*
X135216918Y-92129400D02*
X135074061Y-92057971D01*
X134359775Y-92700828D02*
X134359775Y-91700828D01*
X134359775Y-91843685D02*
X134288346Y-91772257D01*
X134288346Y-91772257D02*
X134145489Y-91700828D01*
X134145489Y-91700828D02*
X133931203Y-91700828D01*
X133931203Y-91700828D02*
X133788346Y-91772257D01*
X133788346Y-91772257D02*
X133716918Y-91915114D01*
X133716918Y-91915114D02*
X133716918Y-92700828D01*
X133716918Y-91915114D02*
X133645489Y-91772257D01*
X133645489Y-91772257D02*
X133502632Y-91700828D01*
X133502632Y-91700828D02*
X133288346Y-91700828D01*
X133288346Y-91700828D02*
X133145489Y-91772257D01*
X133145489Y-91772257D02*
X133074060Y-91915114D01*
X133074060Y-91915114D02*
X133074060Y-92700828D01*
X132359775Y-92700828D02*
X132359775Y-91700828D01*
X132359775Y-91200828D02*
X132431203Y-91272257D01*
X132431203Y-91272257D02*
X132359775Y-91343685D01*
X132359775Y-91343685D02*
X132288346Y-91272257D01*
X132288346Y-91272257D02*
X132359775Y-91200828D01*
X132359775Y-91200828D02*
X132359775Y-91343685D01*
X131645489Y-91700828D02*
X131645489Y-92700828D01*
X131645489Y-91843685D02*
X131574060Y-91772257D01*
X131574060Y-91772257D02*
X131431203Y-91700828D01*
X131431203Y-91700828D02*
X131216917Y-91700828D01*
X131216917Y-91700828D02*
X131074060Y-91772257D01*
X131074060Y-91772257D02*
X131002632Y-91915114D01*
X131002632Y-91915114D02*
X131002632Y-92700828D01*
X129645489Y-91700828D02*
X129645489Y-92915114D01*
X129645489Y-92915114D02*
X129716917Y-93057971D01*
X129716917Y-93057971D02*
X129788346Y-93129400D01*
X129788346Y-93129400D02*
X129931203Y-93200828D01*
X129931203Y-93200828D02*
X130145489Y-93200828D01*
X130145489Y-93200828D02*
X130288346Y-93129400D01*
X129645489Y-92629400D02*
X129788346Y-92700828D01*
X129788346Y-92700828D02*
X130074060Y-92700828D01*
X130074060Y-92700828D02*
X130216917Y-92629400D01*
X130216917Y-92629400D02*
X130288346Y-92557971D01*
X130288346Y-92557971D02*
X130359774Y-92415114D01*
X130359774Y-92415114D02*
X130359774Y-91986542D01*
X130359774Y-91986542D02*
X130288346Y-91843685D01*
X130288346Y-91843685D02*
X130216917Y-91772257D01*
X130216917Y-91772257D02*
X130074060Y-91700828D01*
X130074060Y-91700828D02*
X129788346Y-91700828D01*
X129788346Y-91700828D02*
X129645489Y-91772257D01*
X118388346Y-93100828D02*
X118888346Y-92386542D01*
X119245489Y-93100828D02*
X119245489Y-91600828D01*
X119245489Y-91600828D02*
X118674060Y-91600828D01*
X118674060Y-91600828D02*
X118531203Y-91672257D01*
X118531203Y-91672257D02*
X118459774Y-91743685D01*
X118459774Y-91743685D02*
X118388346Y-91886542D01*
X118388346Y-91886542D02*
X118388346Y-92100828D01*
X118388346Y-92100828D02*
X118459774Y-92243685D01*
X118459774Y-92243685D02*
X118531203Y-92315114D01*
X118531203Y-92315114D02*
X118674060Y-92386542D01*
X118674060Y-92386542D02*
X119245489Y-92386542D01*
X117174060Y-93029400D02*
X117316917Y-93100828D01*
X117316917Y-93100828D02*
X117602632Y-93100828D01*
X117602632Y-93100828D02*
X117745489Y-93029400D01*
X117745489Y-93029400D02*
X117816917Y-92886542D01*
X117816917Y-92886542D02*
X117816917Y-92315114D01*
X117816917Y-92315114D02*
X117745489Y-92172257D01*
X117745489Y-92172257D02*
X117602632Y-92100828D01*
X117602632Y-92100828D02*
X117316917Y-92100828D01*
X117316917Y-92100828D02*
X117174060Y-92172257D01*
X117174060Y-92172257D02*
X117102632Y-92315114D01*
X117102632Y-92315114D02*
X117102632Y-92457971D01*
X117102632Y-92457971D02*
X117816917Y-92600828D01*
X116602632Y-92100828D02*
X116245489Y-93100828D01*
X116245489Y-93100828D02*
X115888346Y-92100828D01*
X113674061Y-92315114D02*
X113459775Y-92386542D01*
X113459775Y-92386542D02*
X113388346Y-92457971D01*
X113388346Y-92457971D02*
X113316918Y-92600828D01*
X113316918Y-92600828D02*
X113316918Y-92815114D01*
X113316918Y-92815114D02*
X113388346Y-92957971D01*
X113388346Y-92957971D02*
X113459775Y-93029400D01*
X113459775Y-93029400D02*
X113602632Y-93100828D01*
X113602632Y-93100828D02*
X114174061Y-93100828D01*
X114174061Y-93100828D02*
X114174061Y-91600828D01*
X114174061Y-91600828D02*
X113674061Y-91600828D01*
X113674061Y-91600828D02*
X113531204Y-91672257D01*
X113531204Y-91672257D02*
X113459775Y-91743685D01*
X113459775Y-91743685D02*
X113388346Y-91886542D01*
X113388346Y-91886542D02*
X113388346Y-92029400D01*
X113388346Y-92029400D02*
X113459775Y-92172257D01*
X113459775Y-92172257D02*
X113531204Y-92243685D01*
X113531204Y-92243685D02*
X113674061Y-92315114D01*
X113674061Y-92315114D02*
X114174061Y-92315114D01*
X129459774Y-83800828D02*
X128602632Y-83800828D01*
X129031203Y-85300828D02*
X129031203Y-83800828D01*
X128102632Y-85300828D02*
X128102632Y-83800828D01*
X128102632Y-83800828D02*
X127531203Y-83800828D01*
X127531203Y-83800828D02*
X127388346Y-83872257D01*
X127388346Y-83872257D02*
X127316917Y-83943685D01*
X127316917Y-83943685D02*
X127245489Y-84086542D01*
X127245489Y-84086542D02*
X127245489Y-84300828D01*
X127245489Y-84300828D02*
X127316917Y-84443685D01*
X127316917Y-84443685D02*
X127388346Y-84515114D01*
X127388346Y-84515114D02*
X127531203Y-84586542D01*
X127531203Y-84586542D02*
X128102632Y-84586542D01*
X126674060Y-85229400D02*
X126459775Y-85300828D01*
X126459775Y-85300828D02*
X126102632Y-85300828D01*
X126102632Y-85300828D02*
X125959775Y-85229400D01*
X125959775Y-85229400D02*
X125888346Y-85157971D01*
X125888346Y-85157971D02*
X125816917Y-85015114D01*
X125816917Y-85015114D02*
X125816917Y-84872257D01*
X125816917Y-84872257D02*
X125888346Y-84729400D01*
X125888346Y-84729400D02*
X125959775Y-84657971D01*
X125959775Y-84657971D02*
X126102632Y-84586542D01*
X126102632Y-84586542D02*
X126388346Y-84515114D01*
X126388346Y-84515114D02*
X126531203Y-84443685D01*
X126531203Y-84443685D02*
X126602632Y-84372257D01*
X126602632Y-84372257D02*
X126674060Y-84229400D01*
X126674060Y-84229400D02*
X126674060Y-84086542D01*
X126674060Y-84086542D02*
X126602632Y-83943685D01*
X126602632Y-83943685D02*
X126531203Y-83872257D01*
X126531203Y-83872257D02*
X126388346Y-83800828D01*
X126388346Y-83800828D02*
X126031203Y-83800828D01*
X126031203Y-83800828D02*
X125816917Y-83872257D01*
X124459775Y-83800828D02*
X125174061Y-83800828D01*
X125174061Y-83800828D02*
X125245489Y-84515114D01*
X125245489Y-84515114D02*
X125174061Y-84443685D01*
X125174061Y-84443685D02*
X125031204Y-84372257D01*
X125031204Y-84372257D02*
X124674061Y-84372257D01*
X124674061Y-84372257D02*
X124531204Y-84443685D01*
X124531204Y-84443685D02*
X124459775Y-84515114D01*
X124459775Y-84515114D02*
X124388346Y-84657971D01*
X124388346Y-84657971D02*
X124388346Y-85015114D01*
X124388346Y-85015114D02*
X124459775Y-85157971D01*
X124459775Y-85157971D02*
X124531204Y-85229400D01*
X124531204Y-85229400D02*
X124674061Y-85300828D01*
X124674061Y-85300828D02*
X125031204Y-85300828D01*
X125031204Y-85300828D02*
X125174061Y-85229400D01*
X125174061Y-85229400D02*
X125245489Y-85157971D01*
X123102633Y-84300828D02*
X123102633Y-85300828D01*
X123459775Y-83729400D02*
X123816918Y-84800828D01*
X123816918Y-84800828D02*
X122888347Y-84800828D01*
X122388347Y-83943685D02*
X122316919Y-83872257D01*
X122316919Y-83872257D02*
X122174062Y-83800828D01*
X122174062Y-83800828D02*
X121816919Y-83800828D01*
X121816919Y-83800828D02*
X121674062Y-83872257D01*
X121674062Y-83872257D02*
X121602633Y-83943685D01*
X121602633Y-83943685D02*
X121531204Y-84086542D01*
X121531204Y-84086542D02*
X121531204Y-84229400D01*
X121531204Y-84229400D02*
X121602633Y-84443685D01*
X121602633Y-84443685D02*
X122459776Y-85300828D01*
X122459776Y-85300828D02*
X121531204Y-85300828D01*
X120602633Y-83800828D02*
X120459776Y-83800828D01*
X120459776Y-83800828D02*
X120316919Y-83872257D01*
X120316919Y-83872257D02*
X120245491Y-83943685D01*
X120245491Y-83943685D02*
X120174062Y-84086542D01*
X120174062Y-84086542D02*
X120102633Y-84372257D01*
X120102633Y-84372257D02*
X120102633Y-84729400D01*
X120102633Y-84729400D02*
X120174062Y-85015114D01*
X120174062Y-85015114D02*
X120245491Y-85157971D01*
X120245491Y-85157971D02*
X120316919Y-85229400D01*
X120316919Y-85229400D02*
X120459776Y-85300828D01*
X120459776Y-85300828D02*
X120602633Y-85300828D01*
X120602633Y-85300828D02*
X120745491Y-85229400D01*
X120745491Y-85229400D02*
X120816919Y-85157971D01*
X120816919Y-85157971D02*
X120888348Y-85015114D01*
X120888348Y-85015114D02*
X120959776Y-84729400D01*
X120959776Y-84729400D02*
X120959776Y-84372257D01*
X120959776Y-84372257D02*
X120888348Y-84086542D01*
X120888348Y-84086542D02*
X120816919Y-83943685D01*
X120816919Y-83943685D02*
X120745491Y-83872257D01*
X120745491Y-83872257D02*
X120602633Y-83800828D01*
X119531205Y-83943685D02*
X119459777Y-83872257D01*
X119459777Y-83872257D02*
X119316920Y-83800828D01*
X119316920Y-83800828D02*
X118959777Y-83800828D01*
X118959777Y-83800828D02*
X118816920Y-83872257D01*
X118816920Y-83872257D02*
X118745491Y-83943685D01*
X118745491Y-83943685D02*
X118674062Y-84086542D01*
X118674062Y-84086542D02*
X118674062Y-84229400D01*
X118674062Y-84229400D02*
X118745491Y-84443685D01*
X118745491Y-84443685D02*
X119602634Y-85300828D01*
X119602634Y-85300828D02*
X118674062Y-85300828D01*
X116888349Y-85300828D02*
X116888349Y-83800828D01*
X116888349Y-83800828D02*
X116316920Y-83800828D01*
X116316920Y-83800828D02*
X116174063Y-83872257D01*
X116174063Y-83872257D02*
X116102634Y-83943685D01*
X116102634Y-83943685D02*
X116031206Y-84086542D01*
X116031206Y-84086542D02*
X116031206Y-84300828D01*
X116031206Y-84300828D02*
X116102634Y-84443685D01*
X116102634Y-84443685D02*
X116174063Y-84515114D01*
X116174063Y-84515114D02*
X116316920Y-84586542D01*
X116316920Y-84586542D02*
X116888349Y-84586542D01*
X115459777Y-85229400D02*
X115245492Y-85300828D01*
X115245492Y-85300828D02*
X114888349Y-85300828D01*
X114888349Y-85300828D02*
X114745492Y-85229400D01*
X114745492Y-85229400D02*
X114674063Y-85157971D01*
X114674063Y-85157971D02*
X114602634Y-85015114D01*
X114602634Y-85015114D02*
X114602634Y-84872257D01*
X114602634Y-84872257D02*
X114674063Y-84729400D01*
X114674063Y-84729400D02*
X114745492Y-84657971D01*
X114745492Y-84657971D02*
X114888349Y-84586542D01*
X114888349Y-84586542D02*
X115174063Y-84515114D01*
X115174063Y-84515114D02*
X115316920Y-84443685D01*
X115316920Y-84443685D02*
X115388349Y-84372257D01*
X115388349Y-84372257D02*
X115459777Y-84229400D01*
X115459777Y-84229400D02*
X115459777Y-84086542D01*
X115459777Y-84086542D02*
X115388349Y-83943685D01*
X115388349Y-83943685D02*
X115316920Y-83872257D01*
X115316920Y-83872257D02*
X115174063Y-83800828D01*
X115174063Y-83800828D02*
X114816920Y-83800828D01*
X114816920Y-83800828D02*
X114602634Y-83872257D01*
X113959778Y-83800828D02*
X113959778Y-85015114D01*
X113959778Y-85015114D02*
X113888349Y-85157971D01*
X113888349Y-85157971D02*
X113816921Y-85229400D01*
X113816921Y-85229400D02*
X113674063Y-85300828D01*
X113674063Y-85300828D02*
X113388349Y-85300828D01*
X113388349Y-85300828D02*
X113245492Y-85229400D01*
X113245492Y-85229400D02*
X113174063Y-85157971D01*
X113174063Y-85157971D02*
X113102635Y-85015114D01*
X113102635Y-85015114D02*
X113102635Y-83800828D01*
M02*
