G04 #@! TF.GenerationSoftware,KiCad,Pcbnew,9.0.2-9.0.2-0~ubuntu24.04.1*
G04 #@! TF.CreationDate,2025-07-09T15:12:52+10:00*
G04 #@! TF.ProjectId,TPS54202SwitchingPSU,54505335-3432-4303-9253-776974636869,rev?*
G04 #@! TF.SameCoordinates,Original*
G04 #@! TF.FileFunction,Copper,L2,Bot*
G04 #@! TF.FilePolarity,Positive*
%FSLAX46Y46*%
G04 Gerber Fmt 4.6, Leading zero omitted, Abs format (unit mm)*
G04 Created by KiCad (PCBNEW 9.0.2-9.0.2-0~ubuntu24.04.1) date 2025-07-09 15:12:52*
%MOMM*%
%LPD*%
G01*
G04 APERTURE LIST*
G04 #@! TA.AperFunction,ComponentPad*
%ADD10R,1.700000X1.700000*%
G04 #@! TD*
G04 #@! TA.AperFunction,ComponentPad*
%ADD11C,1.700000*%
G04 #@! TD*
G04 #@! TA.AperFunction,ViaPad*
%ADD12C,0.600000*%
G04 #@! TD*
G04 APERTURE END LIST*
D10*
X115189000Y-87503000D03*
D11*
X115189000Y-90043000D03*
D10*
X143764000Y-87503000D03*
D11*
X143764000Y-90043000D03*
D12*
X120500000Y-88700000D03*
X120500000Y-89900000D03*
X133000000Y-89300000D03*
X135600000Y-89300000D03*
X134400000Y-89300000D03*
X122900000Y-92000000D03*
X129900000Y-91500000D03*
X122600000Y-87600000D03*
X119100000Y-89400000D03*
X121804000Y-87600000D03*
X139700000Y-92100000D03*
X139700000Y-92800000D03*
X120500000Y-89300000D03*
G04 #@! TA.AperFunction,Conductor*
G36*
X146442539Y-83520185D02*
G01*
X146488294Y-83572989D01*
X146499500Y-83624500D01*
X146499500Y-93375500D01*
X146479815Y-93442539D01*
X146427011Y-93488294D01*
X146375500Y-93499500D01*
X112624500Y-93499500D01*
X112557461Y-93479815D01*
X112511706Y-93427011D01*
X112500500Y-93375500D01*
X112500500Y-91921153D01*
X122099500Y-91921153D01*
X122099500Y-92078846D01*
X122130261Y-92233489D01*
X122130264Y-92233501D01*
X122190602Y-92379172D01*
X122190609Y-92379185D01*
X122278210Y-92510288D01*
X122278213Y-92510292D01*
X122389707Y-92621786D01*
X122389711Y-92621789D01*
X122520814Y-92709390D01*
X122520827Y-92709397D01*
X122666498Y-92769735D01*
X122666503Y-92769737D01*
X122821153Y-92800499D01*
X122821156Y-92800500D01*
X122821158Y-92800500D01*
X122978844Y-92800500D01*
X122978845Y-92800499D01*
X123133497Y-92769737D01*
X123279179Y-92709394D01*
X123410289Y-92621789D01*
X123521789Y-92510289D01*
X123609394Y-92379179D01*
X123669737Y-92233497D01*
X123700500Y-92078842D01*
X123700500Y-91921158D01*
X123700500Y-91921155D01*
X123700499Y-91921153D01*
X123669738Y-91766510D01*
X123669737Y-91766503D01*
X123669735Y-91766498D01*
X123609397Y-91620827D01*
X123609390Y-91620814D01*
X123521789Y-91489711D01*
X123521786Y-91489707D01*
X123410292Y-91378213D01*
X123410288Y-91378210D01*
X123279185Y-91290609D01*
X123279172Y-91290602D01*
X123133495Y-91230262D01*
X122978845Y-91199500D01*
X122978842Y-91199500D01*
X122821158Y-91199500D01*
X122821155Y-91199500D01*
X122666510Y-91230261D01*
X122666498Y-91230264D01*
X122520827Y-91290602D01*
X122520814Y-91290609D01*
X122389711Y-91378210D01*
X122389707Y-91378213D01*
X122278213Y-91489707D01*
X122278210Y-91489711D01*
X122190609Y-91620814D01*
X122190602Y-91620827D01*
X122130264Y-91766498D01*
X122130261Y-91766510D01*
X122099500Y-91921153D01*
X112500500Y-91921153D01*
X112500500Y-86605135D01*
X113838500Y-86605135D01*
X113838500Y-88400870D01*
X113838501Y-88400876D01*
X113844908Y-88460483D01*
X113895202Y-88595328D01*
X113895206Y-88595335D01*
X113981452Y-88710544D01*
X113981455Y-88710547D01*
X114096664Y-88796793D01*
X114096671Y-88796797D01*
X114141618Y-88813561D01*
X114231517Y-88847091D01*
X114291127Y-88853500D01*
X114301685Y-88853499D01*
X114368723Y-88873179D01*
X114389372Y-88889818D01*
X115059591Y-89560037D01*
X114996007Y-89577075D01*
X114881993Y-89642901D01*
X114788901Y-89735993D01*
X114723075Y-89850007D01*
X114706037Y-89913591D01*
X114073728Y-89281282D01*
X114073727Y-89281282D01*
X114034380Y-89335439D01*
X113937904Y-89524782D01*
X113872242Y-89726869D01*
X113872242Y-89726872D01*
X113839000Y-89936753D01*
X113839000Y-90149246D01*
X113872242Y-90359127D01*
X113872242Y-90359130D01*
X113937904Y-90561217D01*
X114034375Y-90750550D01*
X114073728Y-90804716D01*
X114706037Y-90172408D01*
X114723075Y-90235993D01*
X114788901Y-90350007D01*
X114881993Y-90443099D01*
X114996007Y-90508925D01*
X115059590Y-90525962D01*
X114427282Y-91158269D01*
X114427282Y-91158270D01*
X114481449Y-91197624D01*
X114670782Y-91294095D01*
X114872870Y-91359757D01*
X115082754Y-91393000D01*
X115295246Y-91393000D01*
X115505127Y-91359757D01*
X115505130Y-91359757D01*
X115707217Y-91294095D01*
X115896554Y-91197622D01*
X115950716Y-91158270D01*
X115950717Y-91158270D01*
X115318408Y-90525962D01*
X115381993Y-90508925D01*
X115496007Y-90443099D01*
X115589099Y-90350007D01*
X115654925Y-90235993D01*
X115671962Y-90172409D01*
X116304270Y-90804717D01*
X116304270Y-90804716D01*
X116343622Y-90750554D01*
X116440095Y-90561217D01*
X116505757Y-90359130D01*
X116505757Y-90359127D01*
X116539000Y-90149246D01*
X116539000Y-89936753D01*
X116505757Y-89726872D01*
X116505757Y-89726869D01*
X116440095Y-89524782D01*
X116343624Y-89335449D01*
X116304270Y-89281282D01*
X116304269Y-89281282D01*
X115671962Y-89913590D01*
X115654925Y-89850007D01*
X115589099Y-89735993D01*
X115496007Y-89642901D01*
X115381993Y-89577075D01*
X115318409Y-89560037D01*
X115988627Y-88889818D01*
X116049950Y-88856333D01*
X116076307Y-88853499D01*
X116086872Y-88853499D01*
X116146483Y-88847091D01*
X116281331Y-88796796D01*
X116396546Y-88710546D01*
X116482796Y-88595331D01*
X116533091Y-88460483D01*
X116537013Y-88424001D01*
X119594500Y-88424001D01*
X119594500Y-90175163D01*
X119606415Y-90284272D01*
X119606416Y-90284275D01*
X119617970Y-90336542D01*
X119653154Y-90440503D01*
X119731685Y-90560916D01*
X119731753Y-90561021D01*
X119731756Y-90561025D01*
X119774692Y-90609909D01*
X119776091Y-90611631D01*
X119777856Y-90613513D01*
X119887230Y-90707008D01*
X119967913Y-90743201D01*
X120018506Y-90765897D01*
X120085676Y-90785131D01*
X120228225Y-90804651D01*
X136480225Y-90695577D01*
X136585943Y-90683672D01*
X136636622Y-90672469D01*
X136737504Y-90638704D01*
X136858075Y-90561217D01*
X136858537Y-90560920D01*
X136858537Y-90560919D01*
X136858543Y-90560916D01*
X136911347Y-90515161D01*
X137005567Y-90406427D01*
X137065338Y-90275550D01*
X137085023Y-90208511D01*
X137085024Y-90208507D01*
X137105500Y-90066091D01*
X137105500Y-88424000D01*
X137093947Y-88316544D01*
X137082741Y-88265033D01*
X137082637Y-88264722D01*
X137048616Y-88162502D01*
X137048613Y-88162496D01*
X136970828Y-88041462D01*
X136970825Y-88041457D01*
X136970820Y-88041451D01*
X136925076Y-87988659D01*
X136925072Y-87988656D01*
X136925070Y-87988653D01*
X136816336Y-87894433D01*
X136816333Y-87894431D01*
X136816331Y-87894430D01*
X136685465Y-87834664D01*
X136685460Y-87834662D01*
X136685459Y-87834662D01*
X136622987Y-87816318D01*
X136618417Y-87814976D01*
X136543556Y-87804213D01*
X136476000Y-87794500D01*
X123026524Y-87794500D01*
X123004977Y-87796622D01*
X122927907Y-87804212D01*
X122892879Y-87811180D01*
X122880452Y-87813652D01*
X122880449Y-87813652D01*
X122880436Y-87813656D01*
X122785644Y-87842411D01*
X122785630Y-87842416D01*
X122697330Y-87878990D01*
X122674074Y-87886044D01*
X122674071Y-87886045D01*
X122641033Y-87892617D01*
X122616841Y-87895000D01*
X122583159Y-87895000D01*
X122558969Y-87892617D01*
X122525924Y-87886044D01*
X122502665Y-87878988D01*
X122442911Y-87854237D01*
X122442901Y-87854233D01*
X122442895Y-87854231D01*
X122442893Y-87854230D01*
X122432630Y-87850609D01*
X122391866Y-87836228D01*
X122391860Y-87836226D01*
X122366439Y-87828761D01*
X122313778Y-87816318D01*
X122313774Y-87816317D01*
X122205933Y-87812464D01*
X122169987Y-87811180D01*
X122169986Y-87811180D01*
X122100518Y-87818648D01*
X122100515Y-87818648D01*
X122100510Y-87818649D01*
X122100507Y-87818649D01*
X121961106Y-87854230D01*
X121961092Y-87854234D01*
X121901332Y-87878988D01*
X121878077Y-87886043D01*
X121878074Y-87886044D01*
X121861234Y-87889393D01*
X121845031Y-87892617D01*
X121820839Y-87895000D01*
X121787161Y-87895000D01*
X121762969Y-87892617D01*
X121740761Y-87888199D01*
X121729922Y-87886043D01*
X121706667Y-87878988D01*
X121640018Y-87851383D01*
X121618371Y-87842417D01*
X121618364Y-87842415D01*
X121618354Y-87842411D01*
X121523563Y-87813656D01*
X121523554Y-87813653D01*
X121523548Y-87813652D01*
X121500462Y-87809060D01*
X121476092Y-87804212D01*
X121401664Y-87796882D01*
X121377476Y-87794500D01*
X120224000Y-87794500D01*
X120223991Y-87794500D01*
X120223990Y-87794501D01*
X120116549Y-87806052D01*
X120116537Y-87806054D01*
X120065027Y-87817260D01*
X119962502Y-87851383D01*
X119962496Y-87851386D01*
X119841462Y-87929171D01*
X119841451Y-87929179D01*
X119788659Y-87974923D01*
X119694433Y-88083664D01*
X119694430Y-88083668D01*
X119634664Y-88214534D01*
X119614976Y-88281582D01*
X119609949Y-88316549D01*
X119594502Y-88423990D01*
X119594500Y-88424001D01*
X116537013Y-88424001D01*
X116539500Y-88400873D01*
X116539499Y-86605135D01*
X142413500Y-86605135D01*
X142413500Y-88400870D01*
X142413501Y-88400876D01*
X142419908Y-88460483D01*
X142470202Y-88595328D01*
X142470206Y-88595335D01*
X142556452Y-88710544D01*
X142556455Y-88710547D01*
X142671664Y-88796793D01*
X142671671Y-88796797D01*
X142716618Y-88813561D01*
X142806517Y-88847091D01*
X142866127Y-88853500D01*
X142876685Y-88853499D01*
X142943723Y-88873179D01*
X142964372Y-88889818D01*
X143634591Y-89560037D01*
X143571007Y-89577075D01*
X143456993Y-89642901D01*
X143363901Y-89735993D01*
X143298075Y-89850007D01*
X143281037Y-89913590D01*
X142648728Y-89281282D01*
X142648727Y-89281282D01*
X142609380Y-89335439D01*
X142512904Y-89524782D01*
X142447242Y-89726869D01*
X142447242Y-89726872D01*
X142414000Y-89936753D01*
X142414000Y-90149246D01*
X142447242Y-90359127D01*
X142447242Y-90359130D01*
X142512904Y-90561217D01*
X142609375Y-90750550D01*
X142648728Y-90804716D01*
X143281037Y-90172408D01*
X143298075Y-90235993D01*
X143363901Y-90350007D01*
X143456993Y-90443099D01*
X143571007Y-90508925D01*
X143634590Y-90525962D01*
X143002282Y-91158269D01*
X143002282Y-91158270D01*
X143056449Y-91197624D01*
X143245782Y-91294095D01*
X143447870Y-91359757D01*
X143657754Y-91393000D01*
X143870246Y-91393000D01*
X144080127Y-91359757D01*
X144080130Y-91359757D01*
X144282217Y-91294095D01*
X144471554Y-91197622D01*
X144525716Y-91158270D01*
X144525717Y-91158270D01*
X143893408Y-90525962D01*
X143956993Y-90508925D01*
X144071007Y-90443099D01*
X144164099Y-90350007D01*
X144229925Y-90235993D01*
X144246962Y-90172408D01*
X144879270Y-90804717D01*
X144879270Y-90804716D01*
X144918622Y-90750554D01*
X145015095Y-90561217D01*
X145080757Y-90359130D01*
X145080757Y-90359127D01*
X145114000Y-90149246D01*
X145114000Y-89936753D01*
X145080757Y-89726872D01*
X145080757Y-89726869D01*
X145015095Y-89524782D01*
X144918624Y-89335449D01*
X144879270Y-89281282D01*
X144879269Y-89281282D01*
X144246962Y-89913590D01*
X144229925Y-89850007D01*
X144164099Y-89735993D01*
X144071007Y-89642901D01*
X143956993Y-89577075D01*
X143893409Y-89560037D01*
X144563627Y-88889818D01*
X144624950Y-88856333D01*
X144651307Y-88853499D01*
X144661872Y-88853499D01*
X144721483Y-88847091D01*
X144856331Y-88796796D01*
X144971546Y-88710546D01*
X145057796Y-88595331D01*
X145108091Y-88460483D01*
X145114500Y-88400873D01*
X145114499Y-86605128D01*
X145108091Y-86545517D01*
X145057796Y-86410669D01*
X145057795Y-86410668D01*
X145057793Y-86410664D01*
X144971547Y-86295455D01*
X144971544Y-86295452D01*
X144856335Y-86209206D01*
X144856328Y-86209202D01*
X144721482Y-86158908D01*
X144721483Y-86158908D01*
X144661883Y-86152501D01*
X144661881Y-86152500D01*
X144661873Y-86152500D01*
X144661864Y-86152500D01*
X142866129Y-86152500D01*
X142866123Y-86152501D01*
X142806516Y-86158908D01*
X142671671Y-86209202D01*
X142671664Y-86209206D01*
X142556455Y-86295452D01*
X142556452Y-86295455D01*
X142470206Y-86410664D01*
X142470202Y-86410671D01*
X142419908Y-86545517D01*
X142413501Y-86605116D01*
X142413501Y-86605123D01*
X142413500Y-86605135D01*
X116539499Y-86605135D01*
X116539499Y-86605128D01*
X116533091Y-86545517D01*
X116482796Y-86410669D01*
X116482795Y-86410668D01*
X116482793Y-86410664D01*
X116396547Y-86295455D01*
X116396544Y-86295452D01*
X116281335Y-86209206D01*
X116281328Y-86209202D01*
X116146482Y-86158908D01*
X116146483Y-86158908D01*
X116086883Y-86152501D01*
X116086881Y-86152500D01*
X116086873Y-86152500D01*
X116086864Y-86152500D01*
X114291129Y-86152500D01*
X114291123Y-86152501D01*
X114231516Y-86158908D01*
X114096671Y-86209202D01*
X114096664Y-86209206D01*
X113981455Y-86295452D01*
X113981452Y-86295455D01*
X113895206Y-86410664D01*
X113895202Y-86410671D01*
X113844908Y-86545517D01*
X113838501Y-86605116D01*
X113838501Y-86605123D01*
X113838500Y-86605135D01*
X112500500Y-86605135D01*
X112500500Y-83624500D01*
X112520185Y-83557461D01*
X112572989Y-83511706D01*
X112624500Y-83500500D01*
X146375500Y-83500500D01*
X146442539Y-83520185D01*
G37*
G04 #@! TD.AperFunction*
G04 #@! TA.AperFunction,Conductor*
G36*
X121424928Y-88309439D02*
G01*
X121570498Y-88369735D01*
X121570503Y-88369737D01*
X121725153Y-88400499D01*
X121725156Y-88400500D01*
X121725158Y-88400500D01*
X121882844Y-88400500D01*
X121882845Y-88400499D01*
X122037497Y-88369737D01*
X122154549Y-88321252D01*
X122224017Y-88313784D01*
X122249447Y-88321251D01*
X122366503Y-88369737D01*
X122521153Y-88400499D01*
X122521156Y-88400500D01*
X122521158Y-88400500D01*
X122678844Y-88400500D01*
X122678845Y-88400499D01*
X122833497Y-88369737D01*
X122882348Y-88349502D01*
X122979072Y-88309439D01*
X123026524Y-88300000D01*
X136476000Y-88300000D01*
X136543039Y-88319685D01*
X136588794Y-88372489D01*
X136600000Y-88424000D01*
X136600000Y-90066091D01*
X136580315Y-90133130D01*
X136527511Y-90178885D01*
X136476832Y-90190088D01*
X120224832Y-90299162D01*
X120157662Y-90279928D01*
X120111554Y-90227432D01*
X120100000Y-90175165D01*
X120100000Y-88424000D01*
X120119685Y-88356961D01*
X120172489Y-88311206D01*
X120224000Y-88300000D01*
X121377476Y-88300000D01*
X121424928Y-88309439D01*
G37*
G04 #@! TD.AperFunction*
M02*
