G04 #@! TF.GenerationSoftware,KiCad,Pcbnew,9.0.2-9.0.2-0~ubuntu24.04.1*
G04 #@! TF.CreationDate,2025-07-09T15:12:52+10:00*
G04 #@! TF.ProjectId,TPS54202SwitchingPSU,54505335-3432-4303-9253-776974636869,rev?*
G04 #@! TF.SameCoordinates,Original*
G04 #@! TF.FileFunction,Legend,Bot*
G04 #@! TF.FilePolarity,Positive*
%FSLAX46Y46*%
G04 Gerber Fmt 4.6, Leading zero omitted, Abs format (unit mm)*
G04 Created by KiCad (PCBNEW 9.0.2-9.0.2-0~ubuntu24.04.1) date 2025-07-09 15:12:52*
%MOMM*%
%LPD*%
G01*
G04 APERTURE LIST*
%ADD10C,0.300000*%
G04 APERTURE END LIST*
D10*
X118388346Y-93300828D02*
X118888346Y-92586542D01*
X119245489Y-93300828D02*
X119245489Y-91800828D01*
X119245489Y-91800828D02*
X118674060Y-91800828D01*
X118674060Y-91800828D02*
X118531203Y-91872257D01*
X118531203Y-91872257D02*
X118459774Y-91943685D01*
X118459774Y-91943685D02*
X118388346Y-92086542D01*
X118388346Y-92086542D02*
X118388346Y-92300828D01*
X118388346Y-92300828D02*
X118459774Y-92443685D01*
X118459774Y-92443685D02*
X118531203Y-92515114D01*
X118531203Y-92515114D02*
X118674060Y-92586542D01*
X118674060Y-92586542D02*
X119245489Y-92586542D01*
X117174060Y-93229400D02*
X117316917Y-93300828D01*
X117316917Y-93300828D02*
X117602632Y-93300828D01*
X117602632Y-93300828D02*
X117745489Y-93229400D01*
X117745489Y-93229400D02*
X117816917Y-93086542D01*
X117816917Y-93086542D02*
X117816917Y-92515114D01*
X117816917Y-92515114D02*
X117745489Y-92372257D01*
X117745489Y-92372257D02*
X117602632Y-92300828D01*
X117602632Y-92300828D02*
X117316917Y-92300828D01*
X117316917Y-92300828D02*
X117174060Y-92372257D01*
X117174060Y-92372257D02*
X117102632Y-92515114D01*
X117102632Y-92515114D02*
X117102632Y-92657971D01*
X117102632Y-92657971D02*
X117816917Y-92800828D01*
X116602632Y-92300828D02*
X116245489Y-93300828D01*
X116245489Y-93300828D02*
X115888346Y-92300828D01*
X114245489Y-92872257D02*
X113531204Y-92872257D01*
X114388346Y-93300828D02*
X113888346Y-91800828D01*
X113888346Y-91800828D02*
X113388346Y-93300828D01*
X129559774Y-84200828D02*
X128702632Y-84200828D01*
X129131203Y-85700828D02*
X129131203Y-84200828D01*
X128202632Y-85700828D02*
X128202632Y-84200828D01*
X128202632Y-84200828D02*
X127631203Y-84200828D01*
X127631203Y-84200828D02*
X127488346Y-84272257D01*
X127488346Y-84272257D02*
X127416917Y-84343685D01*
X127416917Y-84343685D02*
X127345489Y-84486542D01*
X127345489Y-84486542D02*
X127345489Y-84700828D01*
X127345489Y-84700828D02*
X127416917Y-84843685D01*
X127416917Y-84843685D02*
X127488346Y-84915114D01*
X127488346Y-84915114D02*
X127631203Y-84986542D01*
X127631203Y-84986542D02*
X128202632Y-84986542D01*
X126774060Y-85629400D02*
X126559775Y-85700828D01*
X126559775Y-85700828D02*
X126202632Y-85700828D01*
X126202632Y-85700828D02*
X126059775Y-85629400D01*
X126059775Y-85629400D02*
X125988346Y-85557971D01*
X125988346Y-85557971D02*
X125916917Y-85415114D01*
X125916917Y-85415114D02*
X125916917Y-85272257D01*
X125916917Y-85272257D02*
X125988346Y-85129400D01*
X125988346Y-85129400D02*
X126059775Y-85057971D01*
X126059775Y-85057971D02*
X126202632Y-84986542D01*
X126202632Y-84986542D02*
X126488346Y-84915114D01*
X126488346Y-84915114D02*
X126631203Y-84843685D01*
X126631203Y-84843685D02*
X126702632Y-84772257D01*
X126702632Y-84772257D02*
X126774060Y-84629400D01*
X126774060Y-84629400D02*
X126774060Y-84486542D01*
X126774060Y-84486542D02*
X126702632Y-84343685D01*
X126702632Y-84343685D02*
X126631203Y-84272257D01*
X126631203Y-84272257D02*
X126488346Y-84200828D01*
X126488346Y-84200828D02*
X126131203Y-84200828D01*
X126131203Y-84200828D02*
X125916917Y-84272257D01*
X124559775Y-84200828D02*
X125274061Y-84200828D01*
X125274061Y-84200828D02*
X125345489Y-84915114D01*
X125345489Y-84915114D02*
X125274061Y-84843685D01*
X125274061Y-84843685D02*
X125131204Y-84772257D01*
X125131204Y-84772257D02*
X124774061Y-84772257D01*
X124774061Y-84772257D02*
X124631204Y-84843685D01*
X124631204Y-84843685D02*
X124559775Y-84915114D01*
X124559775Y-84915114D02*
X124488346Y-85057971D01*
X124488346Y-85057971D02*
X124488346Y-85415114D01*
X124488346Y-85415114D02*
X124559775Y-85557971D01*
X124559775Y-85557971D02*
X124631204Y-85629400D01*
X124631204Y-85629400D02*
X124774061Y-85700828D01*
X124774061Y-85700828D02*
X125131204Y-85700828D01*
X125131204Y-85700828D02*
X125274061Y-85629400D01*
X125274061Y-85629400D02*
X125345489Y-85557971D01*
X123202633Y-84700828D02*
X123202633Y-85700828D01*
X123559775Y-84129400D02*
X123916918Y-85200828D01*
X123916918Y-85200828D02*
X122988347Y-85200828D01*
X122488347Y-84343685D02*
X122416919Y-84272257D01*
X122416919Y-84272257D02*
X122274062Y-84200828D01*
X122274062Y-84200828D02*
X121916919Y-84200828D01*
X121916919Y-84200828D02*
X121774062Y-84272257D01*
X121774062Y-84272257D02*
X121702633Y-84343685D01*
X121702633Y-84343685D02*
X121631204Y-84486542D01*
X121631204Y-84486542D02*
X121631204Y-84629400D01*
X121631204Y-84629400D02*
X121702633Y-84843685D01*
X121702633Y-84843685D02*
X122559776Y-85700828D01*
X122559776Y-85700828D02*
X121631204Y-85700828D01*
X120702633Y-84200828D02*
X120559776Y-84200828D01*
X120559776Y-84200828D02*
X120416919Y-84272257D01*
X120416919Y-84272257D02*
X120345491Y-84343685D01*
X120345491Y-84343685D02*
X120274062Y-84486542D01*
X120274062Y-84486542D02*
X120202633Y-84772257D01*
X120202633Y-84772257D02*
X120202633Y-85129400D01*
X120202633Y-85129400D02*
X120274062Y-85415114D01*
X120274062Y-85415114D02*
X120345491Y-85557971D01*
X120345491Y-85557971D02*
X120416919Y-85629400D01*
X120416919Y-85629400D02*
X120559776Y-85700828D01*
X120559776Y-85700828D02*
X120702633Y-85700828D01*
X120702633Y-85700828D02*
X120845491Y-85629400D01*
X120845491Y-85629400D02*
X120916919Y-85557971D01*
X120916919Y-85557971D02*
X120988348Y-85415114D01*
X120988348Y-85415114D02*
X121059776Y-85129400D01*
X121059776Y-85129400D02*
X121059776Y-84772257D01*
X121059776Y-84772257D02*
X120988348Y-84486542D01*
X120988348Y-84486542D02*
X120916919Y-84343685D01*
X120916919Y-84343685D02*
X120845491Y-84272257D01*
X120845491Y-84272257D02*
X120702633Y-84200828D01*
X119631205Y-84343685D02*
X119559777Y-84272257D01*
X119559777Y-84272257D02*
X119416920Y-84200828D01*
X119416920Y-84200828D02*
X119059777Y-84200828D01*
X119059777Y-84200828D02*
X118916920Y-84272257D01*
X118916920Y-84272257D02*
X118845491Y-84343685D01*
X118845491Y-84343685D02*
X118774062Y-84486542D01*
X118774062Y-84486542D02*
X118774062Y-84629400D01*
X118774062Y-84629400D02*
X118845491Y-84843685D01*
X118845491Y-84843685D02*
X119702634Y-85700828D01*
X119702634Y-85700828D02*
X118774062Y-85700828D01*
X116988349Y-85700828D02*
X116988349Y-84200828D01*
X116988349Y-84200828D02*
X116416920Y-84200828D01*
X116416920Y-84200828D02*
X116274063Y-84272257D01*
X116274063Y-84272257D02*
X116202634Y-84343685D01*
X116202634Y-84343685D02*
X116131206Y-84486542D01*
X116131206Y-84486542D02*
X116131206Y-84700828D01*
X116131206Y-84700828D02*
X116202634Y-84843685D01*
X116202634Y-84843685D02*
X116274063Y-84915114D01*
X116274063Y-84915114D02*
X116416920Y-84986542D01*
X116416920Y-84986542D02*
X116988349Y-84986542D01*
X115559777Y-85629400D02*
X115345492Y-85700828D01*
X115345492Y-85700828D02*
X114988349Y-85700828D01*
X114988349Y-85700828D02*
X114845492Y-85629400D01*
X114845492Y-85629400D02*
X114774063Y-85557971D01*
X114774063Y-85557971D02*
X114702634Y-85415114D01*
X114702634Y-85415114D02*
X114702634Y-85272257D01*
X114702634Y-85272257D02*
X114774063Y-85129400D01*
X114774063Y-85129400D02*
X114845492Y-85057971D01*
X114845492Y-85057971D02*
X114988349Y-84986542D01*
X114988349Y-84986542D02*
X115274063Y-84915114D01*
X115274063Y-84915114D02*
X115416920Y-84843685D01*
X115416920Y-84843685D02*
X115488349Y-84772257D01*
X115488349Y-84772257D02*
X115559777Y-84629400D01*
X115559777Y-84629400D02*
X115559777Y-84486542D01*
X115559777Y-84486542D02*
X115488349Y-84343685D01*
X115488349Y-84343685D02*
X115416920Y-84272257D01*
X115416920Y-84272257D02*
X115274063Y-84200828D01*
X115274063Y-84200828D02*
X114916920Y-84200828D01*
X114916920Y-84200828D02*
X114702634Y-84272257D01*
X114059778Y-84200828D02*
X114059778Y-85415114D01*
X114059778Y-85415114D02*
X113988349Y-85557971D01*
X113988349Y-85557971D02*
X113916921Y-85629400D01*
X113916921Y-85629400D02*
X113774063Y-85700828D01*
X113774063Y-85700828D02*
X113488349Y-85700828D01*
X113488349Y-85700828D02*
X113345492Y-85629400D01*
X113345492Y-85629400D02*
X113274063Y-85557971D01*
X113274063Y-85557971D02*
X113202635Y-85415114D01*
X113202635Y-85415114D02*
X113202635Y-84200828D01*
X145216917Y-84872257D02*
X144502632Y-84872257D01*
X145359774Y-85300828D02*
X144859774Y-83800828D01*
X144859774Y-83800828D02*
X144359774Y-85300828D01*
X143859775Y-85300828D02*
X143859775Y-83800828D01*
X143859775Y-83800828D02*
X143502632Y-83800828D01*
X143502632Y-83800828D02*
X143288346Y-83872257D01*
X143288346Y-83872257D02*
X143145489Y-84015114D01*
X143145489Y-84015114D02*
X143074060Y-84157971D01*
X143074060Y-84157971D02*
X143002632Y-84443685D01*
X143002632Y-84443685D02*
X143002632Y-84657971D01*
X143002632Y-84657971D02*
X143074060Y-84943685D01*
X143074060Y-84943685D02*
X143145489Y-85086542D01*
X143145489Y-85086542D02*
X143288346Y-85229400D01*
X143288346Y-85229400D02*
X143502632Y-85300828D01*
X143502632Y-85300828D02*
X143859775Y-85300828D01*
X140431203Y-83872257D02*
X140574061Y-83800828D01*
X140574061Y-83800828D02*
X140788346Y-83800828D01*
X140788346Y-83800828D02*
X141002632Y-83872257D01*
X141002632Y-83872257D02*
X141145489Y-84015114D01*
X141145489Y-84015114D02*
X141216918Y-84157971D01*
X141216918Y-84157971D02*
X141288346Y-84443685D01*
X141288346Y-84443685D02*
X141288346Y-84657971D01*
X141288346Y-84657971D02*
X141216918Y-84943685D01*
X141216918Y-84943685D02*
X141145489Y-85086542D01*
X141145489Y-85086542D02*
X141002632Y-85229400D01*
X141002632Y-85229400D02*
X140788346Y-85300828D01*
X140788346Y-85300828D02*
X140645489Y-85300828D01*
X140645489Y-85300828D02*
X140431203Y-85229400D01*
X140431203Y-85229400D02*
X140359775Y-85157971D01*
X140359775Y-85157971D02*
X140359775Y-84657971D01*
X140359775Y-84657971D02*
X140645489Y-84657971D01*
X139074061Y-85300828D02*
X139074061Y-84515114D01*
X139074061Y-84515114D02*
X139145489Y-84372257D01*
X139145489Y-84372257D02*
X139288346Y-84300828D01*
X139288346Y-84300828D02*
X139574061Y-84300828D01*
X139574061Y-84300828D02*
X139716918Y-84372257D01*
X139074061Y-85229400D02*
X139216918Y-85300828D01*
X139216918Y-85300828D02*
X139574061Y-85300828D01*
X139574061Y-85300828D02*
X139716918Y-85229400D01*
X139716918Y-85229400D02*
X139788346Y-85086542D01*
X139788346Y-85086542D02*
X139788346Y-84943685D01*
X139788346Y-84943685D02*
X139716918Y-84800828D01*
X139716918Y-84800828D02*
X139574061Y-84729400D01*
X139574061Y-84729400D02*
X139216918Y-84729400D01*
X139216918Y-84729400D02*
X139074061Y-84657971D01*
X138359775Y-85300828D02*
X138359775Y-84300828D01*
X138359775Y-84443685D02*
X138288346Y-84372257D01*
X138288346Y-84372257D02*
X138145489Y-84300828D01*
X138145489Y-84300828D02*
X137931203Y-84300828D01*
X137931203Y-84300828D02*
X137788346Y-84372257D01*
X137788346Y-84372257D02*
X137716918Y-84515114D01*
X137716918Y-84515114D02*
X137716918Y-85300828D01*
X137716918Y-84515114D02*
X137645489Y-84372257D01*
X137645489Y-84372257D02*
X137502632Y-84300828D01*
X137502632Y-84300828D02*
X137288346Y-84300828D01*
X137288346Y-84300828D02*
X137145489Y-84372257D01*
X137145489Y-84372257D02*
X137074060Y-84515114D01*
X137074060Y-84515114D02*
X137074060Y-85300828D01*
X136359775Y-85300828D02*
X136359775Y-84300828D01*
X136359775Y-83800828D02*
X136431203Y-83872257D01*
X136431203Y-83872257D02*
X136359775Y-83943685D01*
X136359775Y-83943685D02*
X136288346Y-83872257D01*
X136288346Y-83872257D02*
X136359775Y-83800828D01*
X136359775Y-83800828D02*
X136359775Y-83943685D01*
X135645489Y-84300828D02*
X135645489Y-85300828D01*
X135645489Y-84443685D02*
X135574060Y-84372257D01*
X135574060Y-84372257D02*
X135431203Y-84300828D01*
X135431203Y-84300828D02*
X135216917Y-84300828D01*
X135216917Y-84300828D02*
X135074060Y-84372257D01*
X135074060Y-84372257D02*
X135002632Y-84515114D01*
X135002632Y-84515114D02*
X135002632Y-85300828D01*
X133645489Y-84300828D02*
X133645489Y-85515114D01*
X133645489Y-85515114D02*
X133716917Y-85657971D01*
X133716917Y-85657971D02*
X133788346Y-85729400D01*
X133788346Y-85729400D02*
X133931203Y-85800828D01*
X133931203Y-85800828D02*
X134145489Y-85800828D01*
X134145489Y-85800828D02*
X134288346Y-85729400D01*
X133645489Y-85229400D02*
X133788346Y-85300828D01*
X133788346Y-85300828D02*
X134074060Y-85300828D01*
X134074060Y-85300828D02*
X134216917Y-85229400D01*
X134216917Y-85229400D02*
X134288346Y-85157971D01*
X134288346Y-85157971D02*
X134359774Y-85015114D01*
X134359774Y-85015114D02*
X134359774Y-84586542D01*
X134359774Y-84586542D02*
X134288346Y-84443685D01*
X134288346Y-84443685D02*
X134216917Y-84372257D01*
X134216917Y-84372257D02*
X134074060Y-84300828D01*
X134074060Y-84300828D02*
X133788346Y-84300828D01*
X133788346Y-84300828D02*
X133645489Y-84372257D01*
M02*
