G04 #@! TF.GenerationSoftware,KiCad,Pcbnew,9.0.3-9.0.3-0~ubuntu24.04.1*
G04 #@! TF.CreationDate,2025-07-19T17:50:51+10:00*
G04 #@! TF.ProjectId,TPS54202SwitchingPSU,54505335-3432-4303-9253-776974636869,rev?*
G04 #@! TF.SameCoordinates,Original*
G04 #@! TF.FileFunction,Legend,Top*
G04 #@! TF.FilePolarity,Positive*
%FSLAX46Y46*%
G04 Gerber Fmt 4.6, Leading zero omitted, Abs format (unit mm)*
G04 Created by KiCad (PCBNEW 9.0.3-9.0.3-0~ubuntu24.04.1) date 2025-07-19 17:50:51*
%MOMM*%
%LPD*%
G01*
G04 APERTURE LIST*
%ADD10C,0.100000*%
%ADD11C,0.150000*%
%ADD12C,0.120000*%
G04 APERTURE END LIST*
D10*
X117141979Y-84488133D02*
X118665789Y-84488133D01*
X117903884Y-85250038D02*
X117903884Y-83726228D01*
X143441979Y-91988133D02*
X144965789Y-91988133D01*
X140794360Y-91172419D02*
X140984836Y-91172419D01*
X140984836Y-91172419D02*
X141080074Y-91220038D01*
X141080074Y-91220038D02*
X141175312Y-91315276D01*
X141175312Y-91315276D02*
X141222931Y-91505752D01*
X141222931Y-91505752D02*
X141222931Y-91839085D01*
X141222931Y-91839085D02*
X141175312Y-92029561D01*
X141175312Y-92029561D02*
X141080074Y-92124800D01*
X141080074Y-92124800D02*
X140984836Y-92172419D01*
X140984836Y-92172419D02*
X140794360Y-92172419D01*
X140794360Y-92172419D02*
X140699122Y-92124800D01*
X140699122Y-92124800D02*
X140603884Y-92029561D01*
X140603884Y-92029561D02*
X140556265Y-91839085D01*
X140556265Y-91839085D02*
X140556265Y-91505752D01*
X140556265Y-91505752D02*
X140603884Y-91315276D01*
X140603884Y-91315276D02*
X140699122Y-91220038D01*
X140699122Y-91220038D02*
X140794360Y-91172419D01*
X141651503Y-91172419D02*
X141651503Y-91981942D01*
X141651503Y-91981942D02*
X141699122Y-92077180D01*
X141699122Y-92077180D02*
X141746741Y-92124800D01*
X141746741Y-92124800D02*
X141841979Y-92172419D01*
X141841979Y-92172419D02*
X142032455Y-92172419D01*
X142032455Y-92172419D02*
X142127693Y-92124800D01*
X142127693Y-92124800D02*
X142175312Y-92077180D01*
X142175312Y-92077180D02*
X142222931Y-91981942D01*
X142222931Y-91981942D02*
X142222931Y-91172419D01*
X142556265Y-91172419D02*
X143127693Y-91172419D01*
X142841979Y-92172419D02*
X142841979Y-91172419D01*
X143841979Y-84388133D02*
X145365789Y-84388133D01*
X144603884Y-85150038D02*
X144603884Y-83626228D01*
X115941979Y-91288133D02*
X117465789Y-91288133D01*
X114503884Y-92672419D02*
X114503884Y-91672419D01*
X114980074Y-92672419D02*
X114980074Y-91672419D01*
X114980074Y-91672419D02*
X115551502Y-92672419D01*
X115551502Y-92672419D02*
X115551502Y-91672419D01*
D11*
X126154819Y-87066666D02*
X125678628Y-87399999D01*
X126154819Y-87638094D02*
X125154819Y-87638094D01*
X125154819Y-87638094D02*
X125154819Y-87257142D01*
X125154819Y-87257142D02*
X125202438Y-87161904D01*
X125202438Y-87161904D02*
X125250057Y-87114285D01*
X125250057Y-87114285D02*
X125345295Y-87066666D01*
X125345295Y-87066666D02*
X125488152Y-87066666D01*
X125488152Y-87066666D02*
X125583390Y-87114285D01*
X125583390Y-87114285D02*
X125631009Y-87161904D01*
X125631009Y-87161904D02*
X125678628Y-87257142D01*
X125678628Y-87257142D02*
X125678628Y-87638094D01*
X126154819Y-86114285D02*
X126154819Y-86685713D01*
X126154819Y-86399999D02*
X125154819Y-86399999D01*
X125154819Y-86399999D02*
X125297676Y-86495237D01*
X125297676Y-86495237D02*
X125392914Y-86590475D01*
X125392914Y-86590475D02*
X125440533Y-86685713D01*
X126254819Y-89666666D02*
X125778628Y-89999999D01*
X126254819Y-90238094D02*
X125254819Y-90238094D01*
X125254819Y-90238094D02*
X125254819Y-89857142D01*
X125254819Y-89857142D02*
X125302438Y-89761904D01*
X125302438Y-89761904D02*
X125350057Y-89714285D01*
X125350057Y-89714285D02*
X125445295Y-89666666D01*
X125445295Y-89666666D02*
X125588152Y-89666666D01*
X125588152Y-89666666D02*
X125683390Y-89714285D01*
X125683390Y-89714285D02*
X125731009Y-89761904D01*
X125731009Y-89761904D02*
X125778628Y-89857142D01*
X125778628Y-89857142D02*
X125778628Y-90238094D01*
X125350057Y-89285713D02*
X125302438Y-89238094D01*
X125302438Y-89238094D02*
X125254819Y-89142856D01*
X125254819Y-89142856D02*
X125254819Y-88904761D01*
X125254819Y-88904761D02*
X125302438Y-88809523D01*
X125302438Y-88809523D02*
X125350057Y-88761904D01*
X125350057Y-88761904D02*
X125445295Y-88714285D01*
X125445295Y-88714285D02*
X125540533Y-88714285D01*
X125540533Y-88714285D02*
X125683390Y-88761904D01*
X125683390Y-88761904D02*
X126254819Y-89333332D01*
X126254819Y-89333332D02*
X126254819Y-88714285D01*
X113559580Y-88790476D02*
X113607200Y-88838095D01*
X113607200Y-88838095D02*
X113654819Y-88980952D01*
X113654819Y-88980952D02*
X113654819Y-89076190D01*
X113654819Y-89076190D02*
X113607200Y-89219047D01*
X113607200Y-89219047D02*
X113511961Y-89314285D01*
X113511961Y-89314285D02*
X113416723Y-89361904D01*
X113416723Y-89361904D02*
X113226247Y-89409523D01*
X113226247Y-89409523D02*
X113083390Y-89409523D01*
X113083390Y-89409523D02*
X112892914Y-89361904D01*
X112892914Y-89361904D02*
X112797676Y-89314285D01*
X112797676Y-89314285D02*
X112702438Y-89219047D01*
X112702438Y-89219047D02*
X112654819Y-89076190D01*
X112654819Y-89076190D02*
X112654819Y-88980952D01*
X112654819Y-88980952D02*
X112702438Y-88838095D01*
X112702438Y-88838095D02*
X112750057Y-88790476D01*
X113654819Y-88361904D02*
X112654819Y-88361904D01*
X112654819Y-88361904D02*
X113654819Y-87790476D01*
X113654819Y-87790476D02*
X112654819Y-87790476D01*
X113654819Y-86790476D02*
X113654819Y-87361904D01*
X113654819Y-87076190D02*
X112654819Y-87076190D01*
X112654819Y-87076190D02*
X112797676Y-87171428D01*
X112797676Y-87171428D02*
X112892914Y-87266666D01*
X112892914Y-87266666D02*
X112940533Y-87361904D01*
X138133333Y-86259580D02*
X138085714Y-86307200D01*
X138085714Y-86307200D02*
X137942857Y-86354819D01*
X137942857Y-86354819D02*
X137847619Y-86354819D01*
X137847619Y-86354819D02*
X137704762Y-86307200D01*
X137704762Y-86307200D02*
X137609524Y-86211961D01*
X137609524Y-86211961D02*
X137561905Y-86116723D01*
X137561905Y-86116723D02*
X137514286Y-85926247D01*
X137514286Y-85926247D02*
X137514286Y-85783390D01*
X137514286Y-85783390D02*
X137561905Y-85592914D01*
X137561905Y-85592914D02*
X137609524Y-85497676D01*
X137609524Y-85497676D02*
X137704762Y-85402438D01*
X137704762Y-85402438D02*
X137847619Y-85354819D01*
X137847619Y-85354819D02*
X137942857Y-85354819D01*
X137942857Y-85354819D02*
X138085714Y-85402438D01*
X138085714Y-85402438D02*
X138133333Y-85450057D01*
X138514286Y-85450057D02*
X138561905Y-85402438D01*
X138561905Y-85402438D02*
X138657143Y-85354819D01*
X138657143Y-85354819D02*
X138895238Y-85354819D01*
X138895238Y-85354819D02*
X138990476Y-85402438D01*
X138990476Y-85402438D02*
X139038095Y-85450057D01*
X139038095Y-85450057D02*
X139085714Y-85545295D01*
X139085714Y-85545295D02*
X139085714Y-85640533D01*
X139085714Y-85640533D02*
X139038095Y-85783390D01*
X139038095Y-85783390D02*
X138466667Y-86354819D01*
X138466667Y-86354819D02*
X139085714Y-86354819D01*
X118832333Y-86084580D02*
X118784714Y-86132200D01*
X118784714Y-86132200D02*
X118641857Y-86179819D01*
X118641857Y-86179819D02*
X118546619Y-86179819D01*
X118546619Y-86179819D02*
X118403762Y-86132200D01*
X118403762Y-86132200D02*
X118308524Y-86036961D01*
X118308524Y-86036961D02*
X118260905Y-85941723D01*
X118260905Y-85941723D02*
X118213286Y-85751247D01*
X118213286Y-85751247D02*
X118213286Y-85608390D01*
X118213286Y-85608390D02*
X118260905Y-85417914D01*
X118260905Y-85417914D02*
X118308524Y-85322676D01*
X118308524Y-85322676D02*
X118403762Y-85227438D01*
X118403762Y-85227438D02*
X118546619Y-85179819D01*
X118546619Y-85179819D02*
X118641857Y-85179819D01*
X118641857Y-85179819D02*
X118784714Y-85227438D01*
X118784714Y-85227438D02*
X118832333Y-85275057D01*
X119689476Y-85513152D02*
X119689476Y-86179819D01*
X119451381Y-85132200D02*
X119213286Y-85846485D01*
X119213286Y-85846485D02*
X119832333Y-85846485D01*
X126159580Y-92366666D02*
X126207200Y-92414285D01*
X126207200Y-92414285D02*
X126254819Y-92557142D01*
X126254819Y-92557142D02*
X126254819Y-92652380D01*
X126254819Y-92652380D02*
X126207200Y-92795237D01*
X126207200Y-92795237D02*
X126111961Y-92890475D01*
X126111961Y-92890475D02*
X126016723Y-92938094D01*
X126016723Y-92938094D02*
X125826247Y-92985713D01*
X125826247Y-92985713D02*
X125683390Y-92985713D01*
X125683390Y-92985713D02*
X125492914Y-92938094D01*
X125492914Y-92938094D02*
X125397676Y-92890475D01*
X125397676Y-92890475D02*
X125302438Y-92795237D01*
X125302438Y-92795237D02*
X125254819Y-92652380D01*
X125254819Y-92652380D02*
X125254819Y-92557142D01*
X125254819Y-92557142D02*
X125302438Y-92414285D01*
X125302438Y-92414285D02*
X125350057Y-92366666D01*
X125254819Y-92033332D02*
X125254819Y-91414285D01*
X125254819Y-91414285D02*
X125635771Y-91747618D01*
X125635771Y-91747618D02*
X125635771Y-91604761D01*
X125635771Y-91604761D02*
X125683390Y-91509523D01*
X125683390Y-91509523D02*
X125731009Y-91461904D01*
X125731009Y-91461904D02*
X125826247Y-91414285D01*
X125826247Y-91414285D02*
X126064342Y-91414285D01*
X126064342Y-91414285D02*
X126159580Y-91461904D01*
X126159580Y-91461904D02*
X126207200Y-91509523D01*
X126207200Y-91509523D02*
X126254819Y-91604761D01*
X126254819Y-91604761D02*
X126254819Y-91890475D01*
X126254819Y-91890475D02*
X126207200Y-91985713D01*
X126207200Y-91985713D02*
X126159580Y-92033332D01*
X125733333Y-85259580D02*
X125685714Y-85307200D01*
X125685714Y-85307200D02*
X125542857Y-85354819D01*
X125542857Y-85354819D02*
X125447619Y-85354819D01*
X125447619Y-85354819D02*
X125304762Y-85307200D01*
X125304762Y-85307200D02*
X125209524Y-85211961D01*
X125209524Y-85211961D02*
X125161905Y-85116723D01*
X125161905Y-85116723D02*
X125114286Y-84926247D01*
X125114286Y-84926247D02*
X125114286Y-84783390D01*
X125114286Y-84783390D02*
X125161905Y-84592914D01*
X125161905Y-84592914D02*
X125209524Y-84497676D01*
X125209524Y-84497676D02*
X125304762Y-84402438D01*
X125304762Y-84402438D02*
X125447619Y-84354819D01*
X125447619Y-84354819D02*
X125542857Y-84354819D01*
X125542857Y-84354819D02*
X125685714Y-84402438D01*
X125685714Y-84402438D02*
X125733333Y-84450057D01*
X126685714Y-85354819D02*
X126114286Y-85354819D01*
X126400000Y-85354819D02*
X126400000Y-84354819D01*
X126400000Y-84354819D02*
X126304762Y-84497676D01*
X126304762Y-84497676D02*
X126209524Y-84592914D01*
X126209524Y-84592914D02*
X126114286Y-84640533D01*
X123238095Y-87290819D02*
X123238095Y-88100342D01*
X123238095Y-88100342D02*
X123285714Y-88195580D01*
X123285714Y-88195580D02*
X123333333Y-88243200D01*
X123333333Y-88243200D02*
X123428571Y-88290819D01*
X123428571Y-88290819D02*
X123619047Y-88290819D01*
X123619047Y-88290819D02*
X123714285Y-88243200D01*
X123714285Y-88243200D02*
X123761904Y-88195580D01*
X123761904Y-88195580D02*
X123809523Y-88100342D01*
X123809523Y-88100342D02*
X123809523Y-87290819D01*
X124809523Y-88290819D02*
X124238095Y-88290819D01*
X124523809Y-88290819D02*
X124523809Y-87290819D01*
X124523809Y-87290819D02*
X124428571Y-87433676D01*
X124428571Y-87433676D02*
X124333333Y-87528914D01*
X124333333Y-87528914D02*
X124238095Y-87576533D01*
X144959580Y-88490476D02*
X145007200Y-88538095D01*
X145007200Y-88538095D02*
X145054819Y-88680952D01*
X145054819Y-88680952D02*
X145054819Y-88776190D01*
X145054819Y-88776190D02*
X145007200Y-88919047D01*
X145007200Y-88919047D02*
X144911961Y-89014285D01*
X144911961Y-89014285D02*
X144816723Y-89061904D01*
X144816723Y-89061904D02*
X144626247Y-89109523D01*
X144626247Y-89109523D02*
X144483390Y-89109523D01*
X144483390Y-89109523D02*
X144292914Y-89061904D01*
X144292914Y-89061904D02*
X144197676Y-89014285D01*
X144197676Y-89014285D02*
X144102438Y-88919047D01*
X144102438Y-88919047D02*
X144054819Y-88776190D01*
X144054819Y-88776190D02*
X144054819Y-88680952D01*
X144054819Y-88680952D02*
X144102438Y-88538095D01*
X144102438Y-88538095D02*
X144150057Y-88490476D01*
X145054819Y-88061904D02*
X144054819Y-88061904D01*
X144054819Y-88061904D02*
X145054819Y-87490476D01*
X145054819Y-87490476D02*
X144054819Y-87490476D01*
X144150057Y-87061904D02*
X144102438Y-87014285D01*
X144102438Y-87014285D02*
X144054819Y-86919047D01*
X144054819Y-86919047D02*
X144054819Y-86680952D01*
X144054819Y-86680952D02*
X144102438Y-86585714D01*
X144102438Y-86585714D02*
X144150057Y-86538095D01*
X144150057Y-86538095D02*
X144245295Y-86490476D01*
X144245295Y-86490476D02*
X144340533Y-86490476D01*
X144340533Y-86490476D02*
X144483390Y-86538095D01*
X144483390Y-86538095D02*
X145054819Y-87109523D01*
X145054819Y-87109523D02*
X145054819Y-86490476D01*
X131833333Y-85454819D02*
X131357143Y-85454819D01*
X131357143Y-85454819D02*
X131357143Y-84454819D01*
X132690476Y-85454819D02*
X132119048Y-85454819D01*
X132404762Y-85454819D02*
X132404762Y-84454819D01*
X132404762Y-84454819D02*
X132309524Y-84597676D01*
X132309524Y-84597676D02*
X132214286Y-84692914D01*
X132214286Y-84692914D02*
X132119048Y-84740533D01*
D12*
X128523064Y-86265000D02*
X128068936Y-86265000D01*
X128523064Y-87735000D02*
X128068936Y-87735000D01*
X128120936Y-89054000D02*
X128575064Y-89054000D01*
X128120936Y-90524000D02*
X128575064Y-90524000D01*
X113809000Y-84980000D02*
X115189000Y-84980000D01*
X113809000Y-86360000D02*
X113809000Y-84980000D01*
X113809000Y-87630000D02*
X113809000Y-90280000D01*
X113809000Y-87630000D02*
X116569000Y-87630000D01*
X113809000Y-90280000D02*
X116569000Y-90280000D01*
X116569000Y-87630000D02*
X116569000Y-90280000D01*
X137040000Y-88354248D02*
X137040000Y-89776752D01*
X139760000Y-88354248D02*
X139760000Y-89776752D01*
X118216000Y-88227248D02*
X118216000Y-89649752D01*
X120036000Y-88227248D02*
X120036000Y-89649752D01*
X128138748Y-91465000D02*
X128661252Y-91465000D01*
X128138748Y-92935000D02*
X128661252Y-92935000D01*
X123175752Y-85117000D02*
X122653248Y-85117000D01*
X123175752Y-86587000D02*
X122653248Y-86587000D01*
X122941500Y-88676000D02*
X122141500Y-88676000D01*
X122941500Y-88676000D02*
X123741500Y-88676000D01*
X122941500Y-91796000D02*
X122141500Y-91796000D01*
X122941500Y-91796000D02*
X123741500Y-91796000D01*
X121641500Y-88726000D02*
X121401500Y-88396000D01*
X121881500Y-88396000D01*
X121641500Y-88726000D01*
G36*
X121641500Y-88726000D02*
G01*
X121401500Y-88396000D01*
X121881500Y-88396000D01*
X121641500Y-88726000D01*
G37*
X140860000Y-84980000D02*
X142240000Y-84980000D01*
X140860000Y-86360000D02*
X140860000Y-84980000D01*
X140860000Y-87630000D02*
X140860000Y-90280000D01*
X140860000Y-87630000D02*
X143620000Y-87630000D01*
X140860000Y-90280000D02*
X143620000Y-90280000D01*
X143620000Y-87630000D02*
X143620000Y-90280000D01*
X130800000Y-90316000D02*
X130800000Y-87816000D01*
X136200000Y-87816000D02*
X136200000Y-90316000D01*
M02*
