%TF.GenerationSoftware,KiCad,Pcbnew,9.0.2-9.0.2-0~ubuntu24.04.1*%
%TF.CreationDate,2025-07-09T15:13:09+10:00*%
%TF.ProjectId,TPS54202SwitchingPSU,54505335-3432-4303-9253-776974636869,rev?*%
%TF.SameCoordinates,Original*%
%TF.FileFunction,Drillmap*%
%TF.FilePolarity,Positive*%
%FSLAX45Y45*%
G04 Gerber Fmt 4.5, Leading zero omitted, Abs format (unit mm)*
G04 Created by KiCad (PCBNEW 9.0.2-9.0.2-0~ubuntu24.04.1) date 2025-07-09 15:13:09*
%MOMM*%
%LPD*%
G01*
G04 APERTURE LIST*
%ADD10C,0.050000*%
%ADD11C,0.200000*%
%ADD12C,0.100000*%
G04 APERTURE END LIST*
D10*
X11200000Y-8300000D02*
X14700000Y-8300000D01*
X14700000Y-9400000D01*
X11200000Y-9400000D01*
X11200000Y-8300000D01*
D11*
D12*
X11895000Y-8925000D02*
X11925000Y-8955000D01*
X11925000Y-8925000D02*
X11895000Y-8955000D01*
X12035000Y-8855000D02*
X12065000Y-8885000D01*
X12065000Y-8855000D02*
X12035000Y-8885000D01*
X12035000Y-8915000D02*
X12065000Y-8945000D01*
X12065000Y-8915000D02*
X12035000Y-8945000D01*
X12035000Y-8975000D02*
X12065000Y-9005000D01*
X12065000Y-8975000D02*
X12035000Y-9005000D01*
X12165400Y-8745000D02*
X12195400Y-8775000D01*
X12195400Y-8745000D02*
X12165400Y-8775000D01*
X12245000Y-8745000D02*
X12275000Y-8775000D01*
X12275000Y-8745000D02*
X12245000Y-8775000D01*
X12275000Y-9185000D02*
X12305000Y-9215000D01*
X12305000Y-9185000D02*
X12275000Y-9215000D01*
X12975000Y-9135000D02*
X13005000Y-9165000D01*
X13005000Y-9135000D02*
X12975000Y-9165000D01*
X13285000Y-8915000D02*
X13315000Y-8945000D01*
X13315000Y-8915000D02*
X13285000Y-8945000D01*
X13425000Y-8915000D02*
X13455000Y-8945000D01*
X13455000Y-8915000D02*
X13425000Y-8945000D01*
X13545000Y-8915000D02*
X13575000Y-8945000D01*
X13575000Y-8915000D02*
X13545000Y-8945000D01*
X13955000Y-9195000D02*
X13985000Y-9225000D01*
X13985000Y-9195000D02*
X13955000Y-9225000D01*
X13955000Y-9265000D02*
X13985000Y-9295000D01*
X13985000Y-9265000D02*
X13955000Y-9295000D01*
X11568900Y-8750300D02*
G75*
G02*
X11468900Y-8750300I-50000J0D01*
G01*
X11468900Y-8750300D02*
G75*
G02*
X11568900Y-8750300I50000J0D01*
G01*
X11568900Y-9004300D02*
G75*
G02*
X11468900Y-9004300I-50000J0D01*
G01*
X11468900Y-9004300D02*
G75*
G02*
X11568900Y-9004300I50000J0D01*
G01*
X14426400Y-8750300D02*
G75*
G02*
X14326400Y-8750300I-50000J0D01*
G01*
X14326400Y-8750300D02*
G75*
G02*
X14426400Y-8750300I50000J0D01*
G01*
X14426400Y-9004300D02*
G75*
G02*
X14326400Y-9004300I-50000J0D01*
G01*
X14326400Y-9004300D02*
G75*
G02*
X14426400Y-9004300I50000J0D01*
G01*
D11*
X11458277Y-9713984D02*
X11458277Y-9513984D01*
X11458277Y-9513984D02*
X11505896Y-9513984D01*
X11505896Y-9513984D02*
X11534467Y-9523508D01*
X11534467Y-9523508D02*
X11553515Y-9542555D01*
X11553515Y-9542555D02*
X11563039Y-9561603D01*
X11563039Y-9561603D02*
X11572562Y-9599698D01*
X11572562Y-9599698D02*
X11572562Y-9628270D01*
X11572562Y-9628270D02*
X11563039Y-9666365D01*
X11563039Y-9666365D02*
X11553515Y-9685412D01*
X11553515Y-9685412D02*
X11534467Y-9704460D01*
X11534467Y-9704460D02*
X11505896Y-9713984D01*
X11505896Y-9713984D02*
X11458277Y-9713984D01*
X11658277Y-9713984D02*
X11658277Y-9580650D01*
X11658277Y-9618746D02*
X11667801Y-9599698D01*
X11667801Y-9599698D02*
X11677324Y-9590174D01*
X11677324Y-9590174D02*
X11696372Y-9580650D01*
X11696372Y-9580650D02*
X11715420Y-9580650D01*
X11782086Y-9713984D02*
X11782086Y-9580650D01*
X11782086Y-9513984D02*
X11772562Y-9523508D01*
X11772562Y-9523508D02*
X11782086Y-9533031D01*
X11782086Y-9533031D02*
X11791610Y-9523508D01*
X11791610Y-9523508D02*
X11782086Y-9513984D01*
X11782086Y-9513984D02*
X11782086Y-9533031D01*
X11905896Y-9713984D02*
X11886848Y-9704460D01*
X11886848Y-9704460D02*
X11877324Y-9685412D01*
X11877324Y-9685412D02*
X11877324Y-9513984D01*
X12010658Y-9713984D02*
X11991610Y-9704460D01*
X11991610Y-9704460D02*
X11982086Y-9685412D01*
X11982086Y-9685412D02*
X11982086Y-9513984D01*
X12239229Y-9713984D02*
X12239229Y-9513984D01*
X12239229Y-9513984D02*
X12305896Y-9656841D01*
X12305896Y-9656841D02*
X12372562Y-9513984D01*
X12372562Y-9513984D02*
X12372562Y-9713984D01*
X12553515Y-9713984D02*
X12553515Y-9609222D01*
X12553515Y-9609222D02*
X12543991Y-9590174D01*
X12543991Y-9590174D02*
X12524943Y-9580650D01*
X12524943Y-9580650D02*
X12486848Y-9580650D01*
X12486848Y-9580650D02*
X12467801Y-9590174D01*
X12553515Y-9704460D02*
X12534467Y-9713984D01*
X12534467Y-9713984D02*
X12486848Y-9713984D01*
X12486848Y-9713984D02*
X12467801Y-9704460D01*
X12467801Y-9704460D02*
X12458277Y-9685412D01*
X12458277Y-9685412D02*
X12458277Y-9666365D01*
X12458277Y-9666365D02*
X12467801Y-9647317D01*
X12467801Y-9647317D02*
X12486848Y-9637793D01*
X12486848Y-9637793D02*
X12534467Y-9637793D01*
X12534467Y-9637793D02*
X12553515Y-9628270D01*
X12648753Y-9580650D02*
X12648753Y-9780650D01*
X12648753Y-9590174D02*
X12667801Y-9580650D01*
X12667801Y-9580650D02*
X12705896Y-9580650D01*
X12705896Y-9580650D02*
X12724943Y-9590174D01*
X12724943Y-9590174D02*
X12734467Y-9599698D01*
X12734467Y-9599698D02*
X12743991Y-9618746D01*
X12743991Y-9618746D02*
X12743991Y-9675889D01*
X12743991Y-9675889D02*
X12734467Y-9694936D01*
X12734467Y-9694936D02*
X12724943Y-9704460D01*
X12724943Y-9704460D02*
X12705896Y-9713984D01*
X12705896Y-9713984D02*
X12667801Y-9713984D01*
X12667801Y-9713984D02*
X12648753Y-9704460D01*
X12829705Y-9694936D02*
X12839229Y-9704460D01*
X12839229Y-9704460D02*
X12829705Y-9713984D01*
X12829705Y-9713984D02*
X12820182Y-9704460D01*
X12820182Y-9704460D02*
X12829705Y-9694936D01*
X12829705Y-9694936D02*
X12829705Y-9713984D01*
X12829705Y-9590174D02*
X12839229Y-9599698D01*
X12839229Y-9599698D02*
X12829705Y-9609222D01*
X12829705Y-9609222D02*
X12820182Y-9599698D01*
X12820182Y-9599698D02*
X12829705Y-9590174D01*
X12829705Y-9590174D02*
X12829705Y-9609222D01*
D12*
X11167500Y-10027500D02*
X11197500Y-10057500D01*
X11197500Y-10027500D02*
X11167500Y-10057500D01*
D11*
X11496372Y-9933984D02*
X11515420Y-9933984D01*
X11515420Y-9933984D02*
X11534467Y-9943508D01*
X11534467Y-9943508D02*
X11543991Y-9953031D01*
X11543991Y-9953031D02*
X11553515Y-9972079D01*
X11553515Y-9972079D02*
X11563039Y-10010174D01*
X11563039Y-10010174D02*
X11563039Y-10057793D01*
X11563039Y-10057793D02*
X11553515Y-10095889D01*
X11553515Y-10095889D02*
X11543991Y-10114936D01*
X11543991Y-10114936D02*
X11534467Y-10124460D01*
X11534467Y-10124460D02*
X11515420Y-10133984D01*
X11515420Y-10133984D02*
X11496372Y-10133984D01*
X11496372Y-10133984D02*
X11477324Y-10124460D01*
X11477324Y-10124460D02*
X11467801Y-10114936D01*
X11467801Y-10114936D02*
X11458277Y-10095889D01*
X11458277Y-10095889D02*
X11448753Y-10057793D01*
X11448753Y-10057793D02*
X11448753Y-10010174D01*
X11448753Y-10010174D02*
X11458277Y-9972079D01*
X11458277Y-9972079D02*
X11467801Y-9953031D01*
X11467801Y-9953031D02*
X11477324Y-9943508D01*
X11477324Y-9943508D02*
X11496372Y-9933984D01*
X11648753Y-10114936D02*
X11658277Y-10124460D01*
X11658277Y-10124460D02*
X11648753Y-10133984D01*
X11648753Y-10133984D02*
X11639229Y-10124460D01*
X11639229Y-10124460D02*
X11648753Y-10114936D01*
X11648753Y-10114936D02*
X11648753Y-10133984D01*
X11724943Y-9933984D02*
X11848753Y-9933984D01*
X11848753Y-9933984D02*
X11782086Y-10010174D01*
X11782086Y-10010174D02*
X11810658Y-10010174D01*
X11810658Y-10010174D02*
X11829705Y-10019698D01*
X11829705Y-10019698D02*
X11839229Y-10029222D01*
X11839229Y-10029222D02*
X11848753Y-10048270D01*
X11848753Y-10048270D02*
X11848753Y-10095889D01*
X11848753Y-10095889D02*
X11839229Y-10114936D01*
X11839229Y-10114936D02*
X11829705Y-10124460D01*
X11829705Y-10124460D02*
X11810658Y-10133984D01*
X11810658Y-10133984D02*
X11753515Y-10133984D01*
X11753515Y-10133984D02*
X11734467Y-10124460D01*
X11734467Y-10124460D02*
X11724943Y-10114936D01*
X11972562Y-9933984D02*
X11991610Y-9933984D01*
X11991610Y-9933984D02*
X12010658Y-9943508D01*
X12010658Y-9943508D02*
X12020182Y-9953031D01*
X12020182Y-9953031D02*
X12029705Y-9972079D01*
X12029705Y-9972079D02*
X12039229Y-10010174D01*
X12039229Y-10010174D02*
X12039229Y-10057793D01*
X12039229Y-10057793D02*
X12029705Y-10095889D01*
X12029705Y-10095889D02*
X12020182Y-10114936D01*
X12020182Y-10114936D02*
X12010658Y-10124460D01*
X12010658Y-10124460D02*
X11991610Y-10133984D01*
X11991610Y-10133984D02*
X11972562Y-10133984D01*
X11972562Y-10133984D02*
X11953515Y-10124460D01*
X11953515Y-10124460D02*
X11943991Y-10114936D01*
X11943991Y-10114936D02*
X11934467Y-10095889D01*
X11934467Y-10095889D02*
X11924943Y-10057793D01*
X11924943Y-10057793D02*
X11924943Y-10010174D01*
X11924943Y-10010174D02*
X11934467Y-9972079D01*
X11934467Y-9972079D02*
X11943991Y-9953031D01*
X11943991Y-9953031D02*
X11953515Y-9943508D01*
X11953515Y-9943508D02*
X11972562Y-9933984D01*
X12163039Y-9933984D02*
X12182086Y-9933984D01*
X12182086Y-9933984D02*
X12201134Y-9943508D01*
X12201134Y-9943508D02*
X12210658Y-9953031D01*
X12210658Y-9953031D02*
X12220182Y-9972079D01*
X12220182Y-9972079D02*
X12229705Y-10010174D01*
X12229705Y-10010174D02*
X12229705Y-10057793D01*
X12229705Y-10057793D02*
X12220182Y-10095889D01*
X12220182Y-10095889D02*
X12210658Y-10114936D01*
X12210658Y-10114936D02*
X12201134Y-10124460D01*
X12201134Y-10124460D02*
X12182086Y-10133984D01*
X12182086Y-10133984D02*
X12163039Y-10133984D01*
X12163039Y-10133984D02*
X12143991Y-10124460D01*
X12143991Y-10124460D02*
X12134467Y-10114936D01*
X12134467Y-10114936D02*
X12124943Y-10095889D01*
X12124943Y-10095889D02*
X12115420Y-10057793D01*
X12115420Y-10057793D02*
X12115420Y-10010174D01*
X12115420Y-10010174D02*
X12124943Y-9972079D01*
X12124943Y-9972079D02*
X12134467Y-9953031D01*
X12134467Y-9953031D02*
X12143991Y-9943508D01*
X12143991Y-9943508D02*
X12163039Y-9933984D01*
X12315420Y-10133984D02*
X12315420Y-10000650D01*
X12315420Y-10019698D02*
X12324943Y-10010174D01*
X12324943Y-10010174D02*
X12343991Y-10000650D01*
X12343991Y-10000650D02*
X12372563Y-10000650D01*
X12372563Y-10000650D02*
X12391610Y-10010174D01*
X12391610Y-10010174D02*
X12401134Y-10029222D01*
X12401134Y-10029222D02*
X12401134Y-10133984D01*
X12401134Y-10029222D02*
X12410658Y-10010174D01*
X12410658Y-10010174D02*
X12429705Y-10000650D01*
X12429705Y-10000650D02*
X12458277Y-10000650D01*
X12458277Y-10000650D02*
X12477324Y-10010174D01*
X12477324Y-10010174D02*
X12486848Y-10029222D01*
X12486848Y-10029222D02*
X12486848Y-10133984D01*
X12582086Y-10133984D02*
X12582086Y-10000650D01*
X12582086Y-10019698D02*
X12591610Y-10010174D01*
X12591610Y-10010174D02*
X12610658Y-10000650D01*
X12610658Y-10000650D02*
X12639229Y-10000650D01*
X12639229Y-10000650D02*
X12658277Y-10010174D01*
X12658277Y-10010174D02*
X12667801Y-10029222D01*
X12667801Y-10029222D02*
X12667801Y-10133984D01*
X12667801Y-10029222D02*
X12677324Y-10010174D01*
X12677324Y-10010174D02*
X12696372Y-10000650D01*
X12696372Y-10000650D02*
X12724943Y-10000650D01*
X12724943Y-10000650D02*
X12743991Y-10010174D01*
X12743991Y-10010174D02*
X12753515Y-10029222D01*
X12753515Y-10029222D02*
X12753515Y-10133984D01*
X13143991Y-9924460D02*
X12972563Y-10181603D01*
X13401134Y-9933984D02*
X13420182Y-9933984D01*
X13420182Y-9933984D02*
X13439229Y-9943508D01*
X13439229Y-9943508D02*
X13448753Y-9953031D01*
X13448753Y-9953031D02*
X13458277Y-9972079D01*
X13458277Y-9972079D02*
X13467801Y-10010174D01*
X13467801Y-10010174D02*
X13467801Y-10057793D01*
X13467801Y-10057793D02*
X13458277Y-10095889D01*
X13458277Y-10095889D02*
X13448753Y-10114936D01*
X13448753Y-10114936D02*
X13439229Y-10124460D01*
X13439229Y-10124460D02*
X13420182Y-10133984D01*
X13420182Y-10133984D02*
X13401134Y-10133984D01*
X13401134Y-10133984D02*
X13382086Y-10124460D01*
X13382086Y-10124460D02*
X13372563Y-10114936D01*
X13372563Y-10114936D02*
X13363039Y-10095889D01*
X13363039Y-10095889D02*
X13353515Y-10057793D01*
X13353515Y-10057793D02*
X13353515Y-10010174D01*
X13353515Y-10010174D02*
X13363039Y-9972079D01*
X13363039Y-9972079D02*
X13372563Y-9953031D01*
X13372563Y-9953031D02*
X13382086Y-9943508D01*
X13382086Y-9943508D02*
X13401134Y-9933984D01*
X13553515Y-10114936D02*
X13563039Y-10124460D01*
X13563039Y-10124460D02*
X13553515Y-10133984D01*
X13553515Y-10133984D02*
X13543991Y-10124460D01*
X13543991Y-10124460D02*
X13553515Y-10114936D01*
X13553515Y-10114936D02*
X13553515Y-10133984D01*
X13686848Y-9933984D02*
X13705896Y-9933984D01*
X13705896Y-9933984D02*
X13724944Y-9943508D01*
X13724944Y-9943508D02*
X13734467Y-9953031D01*
X13734467Y-9953031D02*
X13743991Y-9972079D01*
X13743991Y-9972079D02*
X13753515Y-10010174D01*
X13753515Y-10010174D02*
X13753515Y-10057793D01*
X13753515Y-10057793D02*
X13743991Y-10095889D01*
X13743991Y-10095889D02*
X13734467Y-10114936D01*
X13734467Y-10114936D02*
X13724944Y-10124460D01*
X13724944Y-10124460D02*
X13705896Y-10133984D01*
X13705896Y-10133984D02*
X13686848Y-10133984D01*
X13686848Y-10133984D02*
X13667801Y-10124460D01*
X13667801Y-10124460D02*
X13658277Y-10114936D01*
X13658277Y-10114936D02*
X13648753Y-10095889D01*
X13648753Y-10095889D02*
X13639229Y-10057793D01*
X13639229Y-10057793D02*
X13639229Y-10010174D01*
X13639229Y-10010174D02*
X13648753Y-9972079D01*
X13648753Y-9972079D02*
X13658277Y-9953031D01*
X13658277Y-9953031D02*
X13667801Y-9943508D01*
X13667801Y-9943508D02*
X13686848Y-9933984D01*
X13943991Y-10133984D02*
X13829706Y-10133984D01*
X13886848Y-10133984D02*
X13886848Y-9933984D01*
X13886848Y-9933984D02*
X13867801Y-9962555D01*
X13867801Y-9962555D02*
X13848753Y-9981603D01*
X13848753Y-9981603D02*
X13829706Y-9991127D01*
X14134467Y-10133984D02*
X14020182Y-10133984D01*
X14077325Y-10133984D02*
X14077325Y-9933984D01*
X14077325Y-9933984D02*
X14058277Y-9962555D01*
X14058277Y-9962555D02*
X14039229Y-9981603D01*
X14039229Y-9981603D02*
X14020182Y-9991127D01*
X14248753Y-10019698D02*
X14229706Y-10010174D01*
X14229706Y-10010174D02*
X14220182Y-10000650D01*
X14220182Y-10000650D02*
X14210658Y-9981603D01*
X14210658Y-9981603D02*
X14210658Y-9972079D01*
X14210658Y-9972079D02*
X14220182Y-9953031D01*
X14220182Y-9953031D02*
X14229706Y-9943508D01*
X14229706Y-9943508D02*
X14248753Y-9933984D01*
X14248753Y-9933984D02*
X14286848Y-9933984D01*
X14286848Y-9933984D02*
X14305896Y-9943508D01*
X14305896Y-9943508D02*
X14315420Y-9953031D01*
X14315420Y-9953031D02*
X14324944Y-9972079D01*
X14324944Y-9972079D02*
X14324944Y-9981603D01*
X14324944Y-9981603D02*
X14315420Y-10000650D01*
X14315420Y-10000650D02*
X14305896Y-10010174D01*
X14305896Y-10010174D02*
X14286848Y-10019698D01*
X14286848Y-10019698D02*
X14248753Y-10019698D01*
X14248753Y-10019698D02*
X14229706Y-10029222D01*
X14229706Y-10029222D02*
X14220182Y-10038746D01*
X14220182Y-10038746D02*
X14210658Y-10057793D01*
X14210658Y-10057793D02*
X14210658Y-10095889D01*
X14210658Y-10095889D02*
X14220182Y-10114936D01*
X14220182Y-10114936D02*
X14229706Y-10124460D01*
X14229706Y-10124460D02*
X14248753Y-10133984D01*
X14248753Y-10133984D02*
X14286848Y-10133984D01*
X14286848Y-10133984D02*
X14305896Y-10124460D01*
X14305896Y-10124460D02*
X14315420Y-10114936D01*
X14315420Y-10114936D02*
X14324944Y-10095889D01*
X14324944Y-10095889D02*
X14324944Y-10057793D01*
X14324944Y-10057793D02*
X14315420Y-10038746D01*
X14315420Y-10038746D02*
X14305896Y-10029222D01*
X14305896Y-10029222D02*
X14286848Y-10019698D01*
X14401134Y-9933984D02*
X14401134Y-9972079D01*
X14477325Y-9933984D02*
X14477325Y-9972079D01*
X14772563Y-10210174D02*
X14763039Y-10200650D01*
X14763039Y-10200650D02*
X14743991Y-10172079D01*
X14743991Y-10172079D02*
X14734468Y-10153031D01*
X14734468Y-10153031D02*
X14724944Y-10124460D01*
X14724944Y-10124460D02*
X14715420Y-10076841D01*
X14715420Y-10076841D02*
X14715420Y-10038746D01*
X14715420Y-10038746D02*
X14724944Y-9991127D01*
X14724944Y-9991127D02*
X14734468Y-9962555D01*
X14734468Y-9962555D02*
X14743991Y-9943508D01*
X14743991Y-9943508D02*
X14763039Y-9914936D01*
X14763039Y-9914936D02*
X14772563Y-9905412D01*
X14953515Y-10133984D02*
X14839229Y-10133984D01*
X14896372Y-10133984D02*
X14896372Y-9933984D01*
X14896372Y-9933984D02*
X14877325Y-9962555D01*
X14877325Y-9962555D02*
X14858277Y-9981603D01*
X14858277Y-9981603D02*
X14839229Y-9991127D01*
X15020182Y-9933984D02*
X15143991Y-9933984D01*
X15143991Y-9933984D02*
X15077325Y-10010174D01*
X15077325Y-10010174D02*
X15105896Y-10010174D01*
X15105896Y-10010174D02*
X15124944Y-10019698D01*
X15124944Y-10019698D02*
X15134468Y-10029222D01*
X15134468Y-10029222D02*
X15143991Y-10048270D01*
X15143991Y-10048270D02*
X15143991Y-10095889D01*
X15143991Y-10095889D02*
X15134468Y-10114936D01*
X15134468Y-10114936D02*
X15124944Y-10124460D01*
X15124944Y-10124460D02*
X15105896Y-10133984D01*
X15105896Y-10133984D02*
X15048753Y-10133984D01*
X15048753Y-10133984D02*
X15029706Y-10124460D01*
X15029706Y-10124460D02*
X15020182Y-10114936D01*
X15382087Y-10133984D02*
X15382087Y-9933984D01*
X15467801Y-10133984D02*
X15467801Y-10029222D01*
X15467801Y-10029222D02*
X15458277Y-10010174D01*
X15458277Y-10010174D02*
X15439230Y-10000650D01*
X15439230Y-10000650D02*
X15410658Y-10000650D01*
X15410658Y-10000650D02*
X15391610Y-10010174D01*
X15391610Y-10010174D02*
X15382087Y-10019698D01*
X15591610Y-10133984D02*
X15572563Y-10124460D01*
X15572563Y-10124460D02*
X15563039Y-10114936D01*
X15563039Y-10114936D02*
X15553515Y-10095889D01*
X15553515Y-10095889D02*
X15553515Y-10038746D01*
X15553515Y-10038746D02*
X15563039Y-10019698D01*
X15563039Y-10019698D02*
X15572563Y-10010174D01*
X15572563Y-10010174D02*
X15591610Y-10000650D01*
X15591610Y-10000650D02*
X15620182Y-10000650D01*
X15620182Y-10000650D02*
X15639230Y-10010174D01*
X15639230Y-10010174D02*
X15648753Y-10019698D01*
X15648753Y-10019698D02*
X15658277Y-10038746D01*
X15658277Y-10038746D02*
X15658277Y-10095889D01*
X15658277Y-10095889D02*
X15648753Y-10114936D01*
X15648753Y-10114936D02*
X15639230Y-10124460D01*
X15639230Y-10124460D02*
X15620182Y-10133984D01*
X15620182Y-10133984D02*
X15591610Y-10133984D01*
X15772563Y-10133984D02*
X15753515Y-10124460D01*
X15753515Y-10124460D02*
X15743991Y-10105412D01*
X15743991Y-10105412D02*
X15743991Y-9933984D01*
X15924944Y-10124460D02*
X15905896Y-10133984D01*
X15905896Y-10133984D02*
X15867801Y-10133984D01*
X15867801Y-10133984D02*
X15848753Y-10124460D01*
X15848753Y-10124460D02*
X15839230Y-10105412D01*
X15839230Y-10105412D02*
X15839230Y-10029222D01*
X15839230Y-10029222D02*
X15848753Y-10010174D01*
X15848753Y-10010174D02*
X15867801Y-10000650D01*
X15867801Y-10000650D02*
X15905896Y-10000650D01*
X15905896Y-10000650D02*
X15924944Y-10010174D01*
X15924944Y-10010174D02*
X15934468Y-10029222D01*
X15934468Y-10029222D02*
X15934468Y-10048270D01*
X15934468Y-10048270D02*
X15839230Y-10067317D01*
X16010658Y-10124460D02*
X16029706Y-10133984D01*
X16029706Y-10133984D02*
X16067801Y-10133984D01*
X16067801Y-10133984D02*
X16086849Y-10124460D01*
X16086849Y-10124460D02*
X16096372Y-10105412D01*
X16096372Y-10105412D02*
X16096372Y-10095889D01*
X16096372Y-10095889D02*
X16086849Y-10076841D01*
X16086849Y-10076841D02*
X16067801Y-10067317D01*
X16067801Y-10067317D02*
X16039230Y-10067317D01*
X16039230Y-10067317D02*
X16020182Y-10057793D01*
X16020182Y-10057793D02*
X16010658Y-10038746D01*
X16010658Y-10038746D02*
X16010658Y-10029222D01*
X16010658Y-10029222D02*
X16020182Y-10010174D01*
X16020182Y-10010174D02*
X16039230Y-10000650D01*
X16039230Y-10000650D02*
X16067801Y-10000650D01*
X16067801Y-10000650D02*
X16086849Y-10010174D01*
X16163039Y-10210174D02*
X16172563Y-10200650D01*
X16172563Y-10200650D02*
X16191611Y-10172079D01*
X16191611Y-10172079D02*
X16201134Y-10153031D01*
X16201134Y-10153031D02*
X16210658Y-10124460D01*
X16210658Y-10124460D02*
X16220182Y-10076841D01*
X16220182Y-10076841D02*
X16220182Y-10038746D01*
X16220182Y-10038746D02*
X16210658Y-9991127D01*
X16210658Y-9991127D02*
X16201134Y-9962555D01*
X16201134Y-9962555D02*
X16191611Y-9943508D01*
X16191611Y-9943508D02*
X16172563Y-9914936D01*
X16172563Y-9914936D02*
X16163039Y-9905412D01*
D12*
X11197500Y-10306500D02*
G75*
G02*
X11097500Y-10306500I-50000J0D01*
G01*
X11097500Y-10306500D02*
G75*
G02*
X11197500Y-10306500I50000J0D01*
G01*
D11*
X11563039Y-10397984D02*
X11448753Y-10397984D01*
X11505896Y-10397984D02*
X11505896Y-10197984D01*
X11505896Y-10197984D02*
X11486848Y-10226555D01*
X11486848Y-10226555D02*
X11467801Y-10245603D01*
X11467801Y-10245603D02*
X11448753Y-10255127D01*
X11648753Y-10378936D02*
X11658277Y-10388460D01*
X11658277Y-10388460D02*
X11648753Y-10397984D01*
X11648753Y-10397984D02*
X11639229Y-10388460D01*
X11639229Y-10388460D02*
X11648753Y-10378936D01*
X11648753Y-10378936D02*
X11648753Y-10397984D01*
X11782086Y-10197984D02*
X11801134Y-10197984D01*
X11801134Y-10197984D02*
X11820182Y-10207508D01*
X11820182Y-10207508D02*
X11829705Y-10217031D01*
X11829705Y-10217031D02*
X11839229Y-10236079D01*
X11839229Y-10236079D02*
X11848753Y-10274174D01*
X11848753Y-10274174D02*
X11848753Y-10321793D01*
X11848753Y-10321793D02*
X11839229Y-10359889D01*
X11839229Y-10359889D02*
X11829705Y-10378936D01*
X11829705Y-10378936D02*
X11820182Y-10388460D01*
X11820182Y-10388460D02*
X11801134Y-10397984D01*
X11801134Y-10397984D02*
X11782086Y-10397984D01*
X11782086Y-10397984D02*
X11763039Y-10388460D01*
X11763039Y-10388460D02*
X11753515Y-10378936D01*
X11753515Y-10378936D02*
X11743991Y-10359889D01*
X11743991Y-10359889D02*
X11734467Y-10321793D01*
X11734467Y-10321793D02*
X11734467Y-10274174D01*
X11734467Y-10274174D02*
X11743991Y-10236079D01*
X11743991Y-10236079D02*
X11753515Y-10217031D01*
X11753515Y-10217031D02*
X11763039Y-10207508D01*
X11763039Y-10207508D02*
X11782086Y-10197984D01*
X11972562Y-10197984D02*
X11991610Y-10197984D01*
X11991610Y-10197984D02*
X12010658Y-10207508D01*
X12010658Y-10207508D02*
X12020182Y-10217031D01*
X12020182Y-10217031D02*
X12029705Y-10236079D01*
X12029705Y-10236079D02*
X12039229Y-10274174D01*
X12039229Y-10274174D02*
X12039229Y-10321793D01*
X12039229Y-10321793D02*
X12029705Y-10359889D01*
X12029705Y-10359889D02*
X12020182Y-10378936D01*
X12020182Y-10378936D02*
X12010658Y-10388460D01*
X12010658Y-10388460D02*
X11991610Y-10397984D01*
X11991610Y-10397984D02*
X11972562Y-10397984D01*
X11972562Y-10397984D02*
X11953515Y-10388460D01*
X11953515Y-10388460D02*
X11943991Y-10378936D01*
X11943991Y-10378936D02*
X11934467Y-10359889D01*
X11934467Y-10359889D02*
X11924943Y-10321793D01*
X11924943Y-10321793D02*
X11924943Y-10274174D01*
X11924943Y-10274174D02*
X11934467Y-10236079D01*
X11934467Y-10236079D02*
X11943991Y-10217031D01*
X11943991Y-10217031D02*
X11953515Y-10207508D01*
X11953515Y-10207508D02*
X11972562Y-10197984D01*
X12163039Y-10197984D02*
X12182086Y-10197984D01*
X12182086Y-10197984D02*
X12201134Y-10207508D01*
X12201134Y-10207508D02*
X12210658Y-10217031D01*
X12210658Y-10217031D02*
X12220182Y-10236079D01*
X12220182Y-10236079D02*
X12229705Y-10274174D01*
X12229705Y-10274174D02*
X12229705Y-10321793D01*
X12229705Y-10321793D02*
X12220182Y-10359889D01*
X12220182Y-10359889D02*
X12210658Y-10378936D01*
X12210658Y-10378936D02*
X12201134Y-10388460D01*
X12201134Y-10388460D02*
X12182086Y-10397984D01*
X12182086Y-10397984D02*
X12163039Y-10397984D01*
X12163039Y-10397984D02*
X12143991Y-10388460D01*
X12143991Y-10388460D02*
X12134467Y-10378936D01*
X12134467Y-10378936D02*
X12124943Y-10359889D01*
X12124943Y-10359889D02*
X12115420Y-10321793D01*
X12115420Y-10321793D02*
X12115420Y-10274174D01*
X12115420Y-10274174D02*
X12124943Y-10236079D01*
X12124943Y-10236079D02*
X12134467Y-10217031D01*
X12134467Y-10217031D02*
X12143991Y-10207508D01*
X12143991Y-10207508D02*
X12163039Y-10197984D01*
X12315420Y-10397984D02*
X12315420Y-10264650D01*
X12315420Y-10283698D02*
X12324943Y-10274174D01*
X12324943Y-10274174D02*
X12343991Y-10264650D01*
X12343991Y-10264650D02*
X12372563Y-10264650D01*
X12372563Y-10264650D02*
X12391610Y-10274174D01*
X12391610Y-10274174D02*
X12401134Y-10293222D01*
X12401134Y-10293222D02*
X12401134Y-10397984D01*
X12401134Y-10293222D02*
X12410658Y-10274174D01*
X12410658Y-10274174D02*
X12429705Y-10264650D01*
X12429705Y-10264650D02*
X12458277Y-10264650D01*
X12458277Y-10264650D02*
X12477324Y-10274174D01*
X12477324Y-10274174D02*
X12486848Y-10293222D01*
X12486848Y-10293222D02*
X12486848Y-10397984D01*
X12582086Y-10397984D02*
X12582086Y-10264650D01*
X12582086Y-10283698D02*
X12591610Y-10274174D01*
X12591610Y-10274174D02*
X12610658Y-10264650D01*
X12610658Y-10264650D02*
X12639229Y-10264650D01*
X12639229Y-10264650D02*
X12658277Y-10274174D01*
X12658277Y-10274174D02*
X12667801Y-10293222D01*
X12667801Y-10293222D02*
X12667801Y-10397984D01*
X12667801Y-10293222D02*
X12677324Y-10274174D01*
X12677324Y-10274174D02*
X12696372Y-10264650D01*
X12696372Y-10264650D02*
X12724943Y-10264650D01*
X12724943Y-10264650D02*
X12743991Y-10274174D01*
X12743991Y-10274174D02*
X12753515Y-10293222D01*
X12753515Y-10293222D02*
X12753515Y-10397984D01*
X13143991Y-10188460D02*
X12972563Y-10445603D01*
X13401134Y-10197984D02*
X13420182Y-10197984D01*
X13420182Y-10197984D02*
X13439229Y-10207508D01*
X13439229Y-10207508D02*
X13448753Y-10217031D01*
X13448753Y-10217031D02*
X13458277Y-10236079D01*
X13458277Y-10236079D02*
X13467801Y-10274174D01*
X13467801Y-10274174D02*
X13467801Y-10321793D01*
X13467801Y-10321793D02*
X13458277Y-10359889D01*
X13458277Y-10359889D02*
X13448753Y-10378936D01*
X13448753Y-10378936D02*
X13439229Y-10388460D01*
X13439229Y-10388460D02*
X13420182Y-10397984D01*
X13420182Y-10397984D02*
X13401134Y-10397984D01*
X13401134Y-10397984D02*
X13382086Y-10388460D01*
X13382086Y-10388460D02*
X13372563Y-10378936D01*
X13372563Y-10378936D02*
X13363039Y-10359889D01*
X13363039Y-10359889D02*
X13353515Y-10321793D01*
X13353515Y-10321793D02*
X13353515Y-10274174D01*
X13353515Y-10274174D02*
X13363039Y-10236079D01*
X13363039Y-10236079D02*
X13372563Y-10217031D01*
X13372563Y-10217031D02*
X13382086Y-10207508D01*
X13382086Y-10207508D02*
X13401134Y-10197984D01*
X13553515Y-10378936D02*
X13563039Y-10388460D01*
X13563039Y-10388460D02*
X13553515Y-10397984D01*
X13553515Y-10397984D02*
X13543991Y-10388460D01*
X13543991Y-10388460D02*
X13553515Y-10378936D01*
X13553515Y-10378936D02*
X13553515Y-10397984D01*
X13686848Y-10197984D02*
X13705896Y-10197984D01*
X13705896Y-10197984D02*
X13724944Y-10207508D01*
X13724944Y-10207508D02*
X13734467Y-10217031D01*
X13734467Y-10217031D02*
X13743991Y-10236079D01*
X13743991Y-10236079D02*
X13753515Y-10274174D01*
X13753515Y-10274174D02*
X13753515Y-10321793D01*
X13753515Y-10321793D02*
X13743991Y-10359889D01*
X13743991Y-10359889D02*
X13734467Y-10378936D01*
X13734467Y-10378936D02*
X13724944Y-10388460D01*
X13724944Y-10388460D02*
X13705896Y-10397984D01*
X13705896Y-10397984D02*
X13686848Y-10397984D01*
X13686848Y-10397984D02*
X13667801Y-10388460D01*
X13667801Y-10388460D02*
X13658277Y-10378936D01*
X13658277Y-10378936D02*
X13648753Y-10359889D01*
X13648753Y-10359889D02*
X13639229Y-10321793D01*
X13639229Y-10321793D02*
X13639229Y-10274174D01*
X13639229Y-10274174D02*
X13648753Y-10236079D01*
X13648753Y-10236079D02*
X13658277Y-10217031D01*
X13658277Y-10217031D02*
X13667801Y-10207508D01*
X13667801Y-10207508D02*
X13686848Y-10197984D01*
X13820182Y-10197984D02*
X13943991Y-10197984D01*
X13943991Y-10197984D02*
X13877325Y-10274174D01*
X13877325Y-10274174D02*
X13905896Y-10274174D01*
X13905896Y-10274174D02*
X13924944Y-10283698D01*
X13924944Y-10283698D02*
X13934467Y-10293222D01*
X13934467Y-10293222D02*
X13943991Y-10312270D01*
X13943991Y-10312270D02*
X13943991Y-10359889D01*
X13943991Y-10359889D02*
X13934467Y-10378936D01*
X13934467Y-10378936D02*
X13924944Y-10388460D01*
X13924944Y-10388460D02*
X13905896Y-10397984D01*
X13905896Y-10397984D02*
X13848753Y-10397984D01*
X13848753Y-10397984D02*
X13829706Y-10388460D01*
X13829706Y-10388460D02*
X13820182Y-10378936D01*
X14039229Y-10397984D02*
X14077325Y-10397984D01*
X14077325Y-10397984D02*
X14096372Y-10388460D01*
X14096372Y-10388460D02*
X14105896Y-10378936D01*
X14105896Y-10378936D02*
X14124944Y-10350365D01*
X14124944Y-10350365D02*
X14134467Y-10312270D01*
X14134467Y-10312270D02*
X14134467Y-10236079D01*
X14134467Y-10236079D02*
X14124944Y-10217031D01*
X14124944Y-10217031D02*
X14115420Y-10207508D01*
X14115420Y-10207508D02*
X14096372Y-10197984D01*
X14096372Y-10197984D02*
X14058277Y-10197984D01*
X14058277Y-10197984D02*
X14039229Y-10207508D01*
X14039229Y-10207508D02*
X14029706Y-10217031D01*
X14029706Y-10217031D02*
X14020182Y-10236079D01*
X14020182Y-10236079D02*
X14020182Y-10283698D01*
X14020182Y-10283698D02*
X14029706Y-10302746D01*
X14029706Y-10302746D02*
X14039229Y-10312270D01*
X14039229Y-10312270D02*
X14058277Y-10321793D01*
X14058277Y-10321793D02*
X14096372Y-10321793D01*
X14096372Y-10321793D02*
X14115420Y-10312270D01*
X14115420Y-10312270D02*
X14124944Y-10302746D01*
X14124944Y-10302746D02*
X14134467Y-10283698D01*
X14305896Y-10264650D02*
X14305896Y-10397984D01*
X14258277Y-10188460D02*
X14210658Y-10331317D01*
X14210658Y-10331317D02*
X14334467Y-10331317D01*
X14401134Y-10197984D02*
X14401134Y-10236079D01*
X14477325Y-10197984D02*
X14477325Y-10236079D01*
X14772563Y-10474174D02*
X14763039Y-10464650D01*
X14763039Y-10464650D02*
X14743991Y-10436079D01*
X14743991Y-10436079D02*
X14734468Y-10417031D01*
X14734468Y-10417031D02*
X14724944Y-10388460D01*
X14724944Y-10388460D02*
X14715420Y-10340841D01*
X14715420Y-10340841D02*
X14715420Y-10302746D01*
X14715420Y-10302746D02*
X14724944Y-10255127D01*
X14724944Y-10255127D02*
X14734468Y-10226555D01*
X14734468Y-10226555D02*
X14743991Y-10207508D01*
X14743991Y-10207508D02*
X14763039Y-10178936D01*
X14763039Y-10178936D02*
X14772563Y-10169412D01*
X14934468Y-10264650D02*
X14934468Y-10397984D01*
X14886848Y-10188460D02*
X14839229Y-10331317D01*
X14839229Y-10331317D02*
X14963039Y-10331317D01*
X15191610Y-10397984D02*
X15191610Y-10197984D01*
X15277325Y-10397984D02*
X15277325Y-10293222D01*
X15277325Y-10293222D02*
X15267801Y-10274174D01*
X15267801Y-10274174D02*
X15248753Y-10264650D01*
X15248753Y-10264650D02*
X15220182Y-10264650D01*
X15220182Y-10264650D02*
X15201134Y-10274174D01*
X15201134Y-10274174D02*
X15191610Y-10283698D01*
X15401134Y-10397984D02*
X15382087Y-10388460D01*
X15382087Y-10388460D02*
X15372563Y-10378936D01*
X15372563Y-10378936D02*
X15363039Y-10359889D01*
X15363039Y-10359889D02*
X15363039Y-10302746D01*
X15363039Y-10302746D02*
X15372563Y-10283698D01*
X15372563Y-10283698D02*
X15382087Y-10274174D01*
X15382087Y-10274174D02*
X15401134Y-10264650D01*
X15401134Y-10264650D02*
X15429706Y-10264650D01*
X15429706Y-10264650D02*
X15448753Y-10274174D01*
X15448753Y-10274174D02*
X15458277Y-10283698D01*
X15458277Y-10283698D02*
X15467801Y-10302746D01*
X15467801Y-10302746D02*
X15467801Y-10359889D01*
X15467801Y-10359889D02*
X15458277Y-10378936D01*
X15458277Y-10378936D02*
X15448753Y-10388460D01*
X15448753Y-10388460D02*
X15429706Y-10397984D01*
X15429706Y-10397984D02*
X15401134Y-10397984D01*
X15582087Y-10397984D02*
X15563039Y-10388460D01*
X15563039Y-10388460D02*
X15553515Y-10369412D01*
X15553515Y-10369412D02*
X15553515Y-10197984D01*
X15734468Y-10388460D02*
X15715420Y-10397984D01*
X15715420Y-10397984D02*
X15677325Y-10397984D01*
X15677325Y-10397984D02*
X15658277Y-10388460D01*
X15658277Y-10388460D02*
X15648753Y-10369412D01*
X15648753Y-10369412D02*
X15648753Y-10293222D01*
X15648753Y-10293222D02*
X15658277Y-10274174D01*
X15658277Y-10274174D02*
X15677325Y-10264650D01*
X15677325Y-10264650D02*
X15715420Y-10264650D01*
X15715420Y-10264650D02*
X15734468Y-10274174D01*
X15734468Y-10274174D02*
X15743991Y-10293222D01*
X15743991Y-10293222D02*
X15743991Y-10312270D01*
X15743991Y-10312270D02*
X15648753Y-10331317D01*
X15820182Y-10388460D02*
X15839230Y-10397984D01*
X15839230Y-10397984D02*
X15877325Y-10397984D01*
X15877325Y-10397984D02*
X15896372Y-10388460D01*
X15896372Y-10388460D02*
X15905896Y-10369412D01*
X15905896Y-10369412D02*
X15905896Y-10359889D01*
X15905896Y-10359889D02*
X15896372Y-10340841D01*
X15896372Y-10340841D02*
X15877325Y-10331317D01*
X15877325Y-10331317D02*
X15848753Y-10331317D01*
X15848753Y-10331317D02*
X15829706Y-10321793D01*
X15829706Y-10321793D02*
X15820182Y-10302746D01*
X15820182Y-10302746D02*
X15820182Y-10293222D01*
X15820182Y-10293222D02*
X15829706Y-10274174D01*
X15829706Y-10274174D02*
X15848753Y-10264650D01*
X15848753Y-10264650D02*
X15877325Y-10264650D01*
X15877325Y-10264650D02*
X15896372Y-10274174D01*
X15972563Y-10474174D02*
X15982087Y-10464650D01*
X15982087Y-10464650D02*
X16001134Y-10436079D01*
X16001134Y-10436079D02*
X16010658Y-10417031D01*
X16010658Y-10417031D02*
X16020182Y-10388460D01*
X16020182Y-10388460D02*
X16029706Y-10340841D01*
X16029706Y-10340841D02*
X16029706Y-10302746D01*
X16029706Y-10302746D02*
X16020182Y-10255127D01*
X16020182Y-10255127D02*
X16010658Y-10226555D01*
X16010658Y-10226555D02*
X16001134Y-10207508D01*
X16001134Y-10207508D02*
X15982087Y-10178936D01*
X15982087Y-10178936D02*
X15972563Y-10169412D01*
M02*
