%TF.GenerationSoftware,KiCad,Pcbnew,9.0.3-9.0.3-0~ubuntu24.04.1*%
%TF.CreationDate,2025-07-19T17:50:56+10:00*%
%TF.ProjectId,TPS54202SwitchingPSU,54505335-3432-4303-9253-776974636869,rev?*%
%TF.SameCoordinates,Original*%
%TF.FileFunction,Drillmap*%
%TF.FilePolarity,Positive*%
%FSLAX45Y45*%
G04 Gerber Fmt 4.5, Leading zero omitted, Abs format (unit mm)*
G04 Created by KiCad (PCBNEW 9.0.3-9.0.3-0~ubuntu24.04.1) date 2025-07-19 17:50:56*
%MOMM*%
%LPD*%
G01*
G04 APERTURE LIST*
%ADD10C,0.050000*%
%ADD11C,0.200000*%
%ADD12C,0.100000*%
G04 APERTURE END LIST*
D10*
X11250000Y-8350000D02*
X14550000Y-8350000D01*
X14550000Y-9350000D01*
X11250000Y-9350000D01*
X11250000Y-8350000D01*
D11*
D12*
X11895000Y-8925000D02*
X11925000Y-8955000D01*
X11925000Y-8925000D02*
X11895000Y-8955000D01*
X12035000Y-8855000D02*
X12065000Y-8885000D01*
X12065000Y-8855000D02*
X12035000Y-8885000D01*
X12035000Y-8915000D02*
X12065000Y-8945000D01*
X12065000Y-8915000D02*
X12035000Y-8945000D01*
X12035000Y-8975000D02*
X12065000Y-9005000D01*
X12065000Y-8975000D02*
X12035000Y-9005000D01*
X12165400Y-8745000D02*
X12195400Y-8775000D01*
X12195400Y-8745000D02*
X12165400Y-8775000D01*
X12245000Y-8745000D02*
X12275000Y-8775000D01*
X12275000Y-8745000D02*
X12245000Y-8775000D01*
X13025000Y-9095000D02*
X13055000Y-9125000D01*
X13055000Y-9095000D02*
X13025000Y-9125000D01*
X13285000Y-8915000D02*
X13315000Y-8945000D01*
X13315000Y-8915000D02*
X13285000Y-8945000D01*
X13425000Y-8915000D02*
X13455000Y-8945000D01*
X13455000Y-8915000D02*
X13425000Y-8945000D01*
X13545000Y-8915000D02*
X13575000Y-8945000D01*
X13575000Y-8915000D02*
X13545000Y-8945000D01*
X13825000Y-9185000D02*
X13855000Y-9215000D01*
X13855000Y-9185000D02*
X13825000Y-9215000D01*
X11568900Y-8636000D02*
G75*
G02*
X11468900Y-8636000I-50000J0D01*
G01*
X11468900Y-8636000D02*
G75*
G02*
X11568900Y-8636000I50000J0D01*
G01*
X11568900Y-8890000D02*
G75*
G02*
X11468900Y-8890000I-50000J0D01*
G01*
X11468900Y-8890000D02*
G75*
G02*
X11568900Y-8890000I50000J0D01*
G01*
X14274000Y-8636000D02*
G75*
G02*
X14174000Y-8636000I-50000J0D01*
G01*
X14174000Y-8636000D02*
G75*
G02*
X14274000Y-8636000I50000J0D01*
G01*
X14274000Y-8890000D02*
G75*
G02*
X14174000Y-8890000I-50000J0D01*
G01*
X14174000Y-8890000D02*
G75*
G02*
X14274000Y-8890000I50000J0D01*
G01*
D11*
X11508277Y-9663984D02*
X11508277Y-9463984D01*
X11508277Y-9463984D02*
X11555896Y-9463984D01*
X11555896Y-9463984D02*
X11584467Y-9473508D01*
X11584467Y-9473508D02*
X11603515Y-9492555D01*
X11603515Y-9492555D02*
X11613039Y-9511603D01*
X11613039Y-9511603D02*
X11622562Y-9549698D01*
X11622562Y-9549698D02*
X11622562Y-9578270D01*
X11622562Y-9578270D02*
X11613039Y-9616365D01*
X11613039Y-9616365D02*
X11603515Y-9635412D01*
X11603515Y-9635412D02*
X11584467Y-9654460D01*
X11584467Y-9654460D02*
X11555896Y-9663984D01*
X11555896Y-9663984D02*
X11508277Y-9663984D01*
X11708277Y-9663984D02*
X11708277Y-9530650D01*
X11708277Y-9568746D02*
X11717801Y-9549698D01*
X11717801Y-9549698D02*
X11727324Y-9540174D01*
X11727324Y-9540174D02*
X11746372Y-9530650D01*
X11746372Y-9530650D02*
X11765420Y-9530650D01*
X11832086Y-9663984D02*
X11832086Y-9530650D01*
X11832086Y-9463984D02*
X11822562Y-9473508D01*
X11822562Y-9473508D02*
X11832086Y-9483031D01*
X11832086Y-9483031D02*
X11841610Y-9473508D01*
X11841610Y-9473508D02*
X11832086Y-9463984D01*
X11832086Y-9463984D02*
X11832086Y-9483031D01*
X11955896Y-9663984D02*
X11936848Y-9654460D01*
X11936848Y-9654460D02*
X11927324Y-9635412D01*
X11927324Y-9635412D02*
X11927324Y-9463984D01*
X12060658Y-9663984D02*
X12041610Y-9654460D01*
X12041610Y-9654460D02*
X12032086Y-9635412D01*
X12032086Y-9635412D02*
X12032086Y-9463984D01*
X12289229Y-9663984D02*
X12289229Y-9463984D01*
X12289229Y-9463984D02*
X12355896Y-9606841D01*
X12355896Y-9606841D02*
X12422562Y-9463984D01*
X12422562Y-9463984D02*
X12422562Y-9663984D01*
X12603515Y-9663984D02*
X12603515Y-9559222D01*
X12603515Y-9559222D02*
X12593991Y-9540174D01*
X12593991Y-9540174D02*
X12574943Y-9530650D01*
X12574943Y-9530650D02*
X12536848Y-9530650D01*
X12536848Y-9530650D02*
X12517801Y-9540174D01*
X12603515Y-9654460D02*
X12584467Y-9663984D01*
X12584467Y-9663984D02*
X12536848Y-9663984D01*
X12536848Y-9663984D02*
X12517801Y-9654460D01*
X12517801Y-9654460D02*
X12508277Y-9635412D01*
X12508277Y-9635412D02*
X12508277Y-9616365D01*
X12508277Y-9616365D02*
X12517801Y-9597317D01*
X12517801Y-9597317D02*
X12536848Y-9587793D01*
X12536848Y-9587793D02*
X12584467Y-9587793D01*
X12584467Y-9587793D02*
X12603515Y-9578270D01*
X12698753Y-9530650D02*
X12698753Y-9730650D01*
X12698753Y-9540174D02*
X12717801Y-9530650D01*
X12717801Y-9530650D02*
X12755896Y-9530650D01*
X12755896Y-9530650D02*
X12774943Y-9540174D01*
X12774943Y-9540174D02*
X12784467Y-9549698D01*
X12784467Y-9549698D02*
X12793991Y-9568746D01*
X12793991Y-9568746D02*
X12793991Y-9625889D01*
X12793991Y-9625889D02*
X12784467Y-9644936D01*
X12784467Y-9644936D02*
X12774943Y-9654460D01*
X12774943Y-9654460D02*
X12755896Y-9663984D01*
X12755896Y-9663984D02*
X12717801Y-9663984D01*
X12717801Y-9663984D02*
X12698753Y-9654460D01*
X12879705Y-9644936D02*
X12889229Y-9654460D01*
X12889229Y-9654460D02*
X12879705Y-9663984D01*
X12879705Y-9663984D02*
X12870182Y-9654460D01*
X12870182Y-9654460D02*
X12879705Y-9644936D01*
X12879705Y-9644936D02*
X12879705Y-9663984D01*
X12879705Y-9540174D02*
X12889229Y-9549698D01*
X12889229Y-9549698D02*
X12879705Y-9559222D01*
X12879705Y-9559222D02*
X12870182Y-9549698D01*
X12870182Y-9549698D02*
X12879705Y-9540174D01*
X12879705Y-9540174D02*
X12879705Y-9559222D01*
D12*
X11217500Y-9977500D02*
X11247500Y-10007500D01*
X11247500Y-9977500D02*
X11217500Y-10007500D01*
D11*
X11546372Y-9883984D02*
X11565420Y-9883984D01*
X11565420Y-9883984D02*
X11584467Y-9893508D01*
X11584467Y-9893508D02*
X11593991Y-9903031D01*
X11593991Y-9903031D02*
X11603515Y-9922079D01*
X11603515Y-9922079D02*
X11613039Y-9960174D01*
X11613039Y-9960174D02*
X11613039Y-10007793D01*
X11613039Y-10007793D02*
X11603515Y-10045889D01*
X11603515Y-10045889D02*
X11593991Y-10064936D01*
X11593991Y-10064936D02*
X11584467Y-10074460D01*
X11584467Y-10074460D02*
X11565420Y-10083984D01*
X11565420Y-10083984D02*
X11546372Y-10083984D01*
X11546372Y-10083984D02*
X11527324Y-10074460D01*
X11527324Y-10074460D02*
X11517801Y-10064936D01*
X11517801Y-10064936D02*
X11508277Y-10045889D01*
X11508277Y-10045889D02*
X11498753Y-10007793D01*
X11498753Y-10007793D02*
X11498753Y-9960174D01*
X11498753Y-9960174D02*
X11508277Y-9922079D01*
X11508277Y-9922079D02*
X11517801Y-9903031D01*
X11517801Y-9903031D02*
X11527324Y-9893508D01*
X11527324Y-9893508D02*
X11546372Y-9883984D01*
X11698753Y-10064936D02*
X11708277Y-10074460D01*
X11708277Y-10074460D02*
X11698753Y-10083984D01*
X11698753Y-10083984D02*
X11689229Y-10074460D01*
X11689229Y-10074460D02*
X11698753Y-10064936D01*
X11698753Y-10064936D02*
X11698753Y-10083984D01*
X11774943Y-9883984D02*
X11898753Y-9883984D01*
X11898753Y-9883984D02*
X11832086Y-9960174D01*
X11832086Y-9960174D02*
X11860658Y-9960174D01*
X11860658Y-9960174D02*
X11879705Y-9969698D01*
X11879705Y-9969698D02*
X11889229Y-9979222D01*
X11889229Y-9979222D02*
X11898753Y-9998270D01*
X11898753Y-9998270D02*
X11898753Y-10045889D01*
X11898753Y-10045889D02*
X11889229Y-10064936D01*
X11889229Y-10064936D02*
X11879705Y-10074460D01*
X11879705Y-10074460D02*
X11860658Y-10083984D01*
X11860658Y-10083984D02*
X11803515Y-10083984D01*
X11803515Y-10083984D02*
X11784467Y-10074460D01*
X11784467Y-10074460D02*
X11774943Y-10064936D01*
X12022562Y-9883984D02*
X12041610Y-9883984D01*
X12041610Y-9883984D02*
X12060658Y-9893508D01*
X12060658Y-9893508D02*
X12070182Y-9903031D01*
X12070182Y-9903031D02*
X12079705Y-9922079D01*
X12079705Y-9922079D02*
X12089229Y-9960174D01*
X12089229Y-9960174D02*
X12089229Y-10007793D01*
X12089229Y-10007793D02*
X12079705Y-10045889D01*
X12079705Y-10045889D02*
X12070182Y-10064936D01*
X12070182Y-10064936D02*
X12060658Y-10074460D01*
X12060658Y-10074460D02*
X12041610Y-10083984D01*
X12041610Y-10083984D02*
X12022562Y-10083984D01*
X12022562Y-10083984D02*
X12003515Y-10074460D01*
X12003515Y-10074460D02*
X11993991Y-10064936D01*
X11993991Y-10064936D02*
X11984467Y-10045889D01*
X11984467Y-10045889D02*
X11974943Y-10007793D01*
X11974943Y-10007793D02*
X11974943Y-9960174D01*
X11974943Y-9960174D02*
X11984467Y-9922079D01*
X11984467Y-9922079D02*
X11993991Y-9903031D01*
X11993991Y-9903031D02*
X12003515Y-9893508D01*
X12003515Y-9893508D02*
X12022562Y-9883984D01*
X12213039Y-9883984D02*
X12232086Y-9883984D01*
X12232086Y-9883984D02*
X12251134Y-9893508D01*
X12251134Y-9893508D02*
X12260658Y-9903031D01*
X12260658Y-9903031D02*
X12270182Y-9922079D01*
X12270182Y-9922079D02*
X12279705Y-9960174D01*
X12279705Y-9960174D02*
X12279705Y-10007793D01*
X12279705Y-10007793D02*
X12270182Y-10045889D01*
X12270182Y-10045889D02*
X12260658Y-10064936D01*
X12260658Y-10064936D02*
X12251134Y-10074460D01*
X12251134Y-10074460D02*
X12232086Y-10083984D01*
X12232086Y-10083984D02*
X12213039Y-10083984D01*
X12213039Y-10083984D02*
X12193991Y-10074460D01*
X12193991Y-10074460D02*
X12184467Y-10064936D01*
X12184467Y-10064936D02*
X12174943Y-10045889D01*
X12174943Y-10045889D02*
X12165420Y-10007793D01*
X12165420Y-10007793D02*
X12165420Y-9960174D01*
X12165420Y-9960174D02*
X12174943Y-9922079D01*
X12174943Y-9922079D02*
X12184467Y-9903031D01*
X12184467Y-9903031D02*
X12193991Y-9893508D01*
X12193991Y-9893508D02*
X12213039Y-9883984D01*
X12365420Y-10083984D02*
X12365420Y-9950650D01*
X12365420Y-9969698D02*
X12374943Y-9960174D01*
X12374943Y-9960174D02*
X12393991Y-9950650D01*
X12393991Y-9950650D02*
X12422563Y-9950650D01*
X12422563Y-9950650D02*
X12441610Y-9960174D01*
X12441610Y-9960174D02*
X12451134Y-9979222D01*
X12451134Y-9979222D02*
X12451134Y-10083984D01*
X12451134Y-9979222D02*
X12460658Y-9960174D01*
X12460658Y-9960174D02*
X12479705Y-9950650D01*
X12479705Y-9950650D02*
X12508277Y-9950650D01*
X12508277Y-9950650D02*
X12527324Y-9960174D01*
X12527324Y-9960174D02*
X12536848Y-9979222D01*
X12536848Y-9979222D02*
X12536848Y-10083984D01*
X12632086Y-10083984D02*
X12632086Y-9950650D01*
X12632086Y-9969698D02*
X12641610Y-9960174D01*
X12641610Y-9960174D02*
X12660658Y-9950650D01*
X12660658Y-9950650D02*
X12689229Y-9950650D01*
X12689229Y-9950650D02*
X12708277Y-9960174D01*
X12708277Y-9960174D02*
X12717801Y-9979222D01*
X12717801Y-9979222D02*
X12717801Y-10083984D01*
X12717801Y-9979222D02*
X12727324Y-9960174D01*
X12727324Y-9960174D02*
X12746372Y-9950650D01*
X12746372Y-9950650D02*
X12774943Y-9950650D01*
X12774943Y-9950650D02*
X12793991Y-9960174D01*
X12793991Y-9960174D02*
X12803515Y-9979222D01*
X12803515Y-9979222D02*
X12803515Y-10083984D01*
X13193991Y-9874460D02*
X13022563Y-10131603D01*
X13451134Y-9883984D02*
X13470182Y-9883984D01*
X13470182Y-9883984D02*
X13489229Y-9893508D01*
X13489229Y-9893508D02*
X13498753Y-9903031D01*
X13498753Y-9903031D02*
X13508277Y-9922079D01*
X13508277Y-9922079D02*
X13517801Y-9960174D01*
X13517801Y-9960174D02*
X13517801Y-10007793D01*
X13517801Y-10007793D02*
X13508277Y-10045889D01*
X13508277Y-10045889D02*
X13498753Y-10064936D01*
X13498753Y-10064936D02*
X13489229Y-10074460D01*
X13489229Y-10074460D02*
X13470182Y-10083984D01*
X13470182Y-10083984D02*
X13451134Y-10083984D01*
X13451134Y-10083984D02*
X13432086Y-10074460D01*
X13432086Y-10074460D02*
X13422563Y-10064936D01*
X13422563Y-10064936D02*
X13413039Y-10045889D01*
X13413039Y-10045889D02*
X13403515Y-10007793D01*
X13403515Y-10007793D02*
X13403515Y-9960174D01*
X13403515Y-9960174D02*
X13413039Y-9922079D01*
X13413039Y-9922079D02*
X13422563Y-9903031D01*
X13422563Y-9903031D02*
X13432086Y-9893508D01*
X13432086Y-9893508D02*
X13451134Y-9883984D01*
X13603515Y-10064936D02*
X13613039Y-10074460D01*
X13613039Y-10074460D02*
X13603515Y-10083984D01*
X13603515Y-10083984D02*
X13593991Y-10074460D01*
X13593991Y-10074460D02*
X13603515Y-10064936D01*
X13603515Y-10064936D02*
X13603515Y-10083984D01*
X13736848Y-9883984D02*
X13755896Y-9883984D01*
X13755896Y-9883984D02*
X13774944Y-9893508D01*
X13774944Y-9893508D02*
X13784467Y-9903031D01*
X13784467Y-9903031D02*
X13793991Y-9922079D01*
X13793991Y-9922079D02*
X13803515Y-9960174D01*
X13803515Y-9960174D02*
X13803515Y-10007793D01*
X13803515Y-10007793D02*
X13793991Y-10045889D01*
X13793991Y-10045889D02*
X13784467Y-10064936D01*
X13784467Y-10064936D02*
X13774944Y-10074460D01*
X13774944Y-10074460D02*
X13755896Y-10083984D01*
X13755896Y-10083984D02*
X13736848Y-10083984D01*
X13736848Y-10083984D02*
X13717801Y-10074460D01*
X13717801Y-10074460D02*
X13708277Y-10064936D01*
X13708277Y-10064936D02*
X13698753Y-10045889D01*
X13698753Y-10045889D02*
X13689229Y-10007793D01*
X13689229Y-10007793D02*
X13689229Y-9960174D01*
X13689229Y-9960174D02*
X13698753Y-9922079D01*
X13698753Y-9922079D02*
X13708277Y-9903031D01*
X13708277Y-9903031D02*
X13717801Y-9893508D01*
X13717801Y-9893508D02*
X13736848Y-9883984D01*
X13993991Y-10083984D02*
X13879706Y-10083984D01*
X13936848Y-10083984D02*
X13936848Y-9883984D01*
X13936848Y-9883984D02*
X13917801Y-9912555D01*
X13917801Y-9912555D02*
X13898753Y-9931603D01*
X13898753Y-9931603D02*
X13879706Y-9941127D01*
X14184467Y-10083984D02*
X14070182Y-10083984D01*
X14127325Y-10083984D02*
X14127325Y-9883984D01*
X14127325Y-9883984D02*
X14108277Y-9912555D01*
X14108277Y-9912555D02*
X14089229Y-9931603D01*
X14089229Y-9931603D02*
X14070182Y-9941127D01*
X14298753Y-9969698D02*
X14279706Y-9960174D01*
X14279706Y-9960174D02*
X14270182Y-9950650D01*
X14270182Y-9950650D02*
X14260658Y-9931603D01*
X14260658Y-9931603D02*
X14260658Y-9922079D01*
X14260658Y-9922079D02*
X14270182Y-9903031D01*
X14270182Y-9903031D02*
X14279706Y-9893508D01*
X14279706Y-9893508D02*
X14298753Y-9883984D01*
X14298753Y-9883984D02*
X14336848Y-9883984D01*
X14336848Y-9883984D02*
X14355896Y-9893508D01*
X14355896Y-9893508D02*
X14365420Y-9903031D01*
X14365420Y-9903031D02*
X14374944Y-9922079D01*
X14374944Y-9922079D02*
X14374944Y-9931603D01*
X14374944Y-9931603D02*
X14365420Y-9950650D01*
X14365420Y-9950650D02*
X14355896Y-9960174D01*
X14355896Y-9960174D02*
X14336848Y-9969698D01*
X14336848Y-9969698D02*
X14298753Y-9969698D01*
X14298753Y-9969698D02*
X14279706Y-9979222D01*
X14279706Y-9979222D02*
X14270182Y-9988746D01*
X14270182Y-9988746D02*
X14260658Y-10007793D01*
X14260658Y-10007793D02*
X14260658Y-10045889D01*
X14260658Y-10045889D02*
X14270182Y-10064936D01*
X14270182Y-10064936D02*
X14279706Y-10074460D01*
X14279706Y-10074460D02*
X14298753Y-10083984D01*
X14298753Y-10083984D02*
X14336848Y-10083984D01*
X14336848Y-10083984D02*
X14355896Y-10074460D01*
X14355896Y-10074460D02*
X14365420Y-10064936D01*
X14365420Y-10064936D02*
X14374944Y-10045889D01*
X14374944Y-10045889D02*
X14374944Y-10007793D01*
X14374944Y-10007793D02*
X14365420Y-9988746D01*
X14365420Y-9988746D02*
X14355896Y-9979222D01*
X14355896Y-9979222D02*
X14336848Y-9969698D01*
X14451134Y-9883984D02*
X14451134Y-9922079D01*
X14527325Y-9883984D02*
X14527325Y-9922079D01*
X14822563Y-10160174D02*
X14813039Y-10150650D01*
X14813039Y-10150650D02*
X14793991Y-10122079D01*
X14793991Y-10122079D02*
X14784468Y-10103031D01*
X14784468Y-10103031D02*
X14774944Y-10074460D01*
X14774944Y-10074460D02*
X14765420Y-10026841D01*
X14765420Y-10026841D02*
X14765420Y-9988746D01*
X14765420Y-9988746D02*
X14774944Y-9941127D01*
X14774944Y-9941127D02*
X14784468Y-9912555D01*
X14784468Y-9912555D02*
X14793991Y-9893508D01*
X14793991Y-9893508D02*
X14813039Y-9864936D01*
X14813039Y-9864936D02*
X14822563Y-9855412D01*
X15003515Y-10083984D02*
X14889229Y-10083984D01*
X14946372Y-10083984D02*
X14946372Y-9883984D01*
X14946372Y-9883984D02*
X14927325Y-9912555D01*
X14927325Y-9912555D02*
X14908277Y-9931603D01*
X14908277Y-9931603D02*
X14889229Y-9941127D01*
X15193991Y-10083984D02*
X15079706Y-10083984D01*
X15136848Y-10083984D02*
X15136848Y-9883984D01*
X15136848Y-9883984D02*
X15117801Y-9912555D01*
X15117801Y-9912555D02*
X15098753Y-9931603D01*
X15098753Y-9931603D02*
X15079706Y-9941127D01*
X15432087Y-10083984D02*
X15432087Y-9883984D01*
X15517801Y-10083984D02*
X15517801Y-9979222D01*
X15517801Y-9979222D02*
X15508277Y-9960174D01*
X15508277Y-9960174D02*
X15489230Y-9950650D01*
X15489230Y-9950650D02*
X15460658Y-9950650D01*
X15460658Y-9950650D02*
X15441610Y-9960174D01*
X15441610Y-9960174D02*
X15432087Y-9969698D01*
X15641610Y-10083984D02*
X15622563Y-10074460D01*
X15622563Y-10074460D02*
X15613039Y-10064936D01*
X15613039Y-10064936D02*
X15603515Y-10045889D01*
X15603515Y-10045889D02*
X15603515Y-9988746D01*
X15603515Y-9988746D02*
X15613039Y-9969698D01*
X15613039Y-9969698D02*
X15622563Y-9960174D01*
X15622563Y-9960174D02*
X15641610Y-9950650D01*
X15641610Y-9950650D02*
X15670182Y-9950650D01*
X15670182Y-9950650D02*
X15689230Y-9960174D01*
X15689230Y-9960174D02*
X15698753Y-9969698D01*
X15698753Y-9969698D02*
X15708277Y-9988746D01*
X15708277Y-9988746D02*
X15708277Y-10045889D01*
X15708277Y-10045889D02*
X15698753Y-10064936D01*
X15698753Y-10064936D02*
X15689230Y-10074460D01*
X15689230Y-10074460D02*
X15670182Y-10083984D01*
X15670182Y-10083984D02*
X15641610Y-10083984D01*
X15822563Y-10083984D02*
X15803515Y-10074460D01*
X15803515Y-10074460D02*
X15793991Y-10055412D01*
X15793991Y-10055412D02*
X15793991Y-9883984D01*
X15974944Y-10074460D02*
X15955896Y-10083984D01*
X15955896Y-10083984D02*
X15917801Y-10083984D01*
X15917801Y-10083984D02*
X15898753Y-10074460D01*
X15898753Y-10074460D02*
X15889230Y-10055412D01*
X15889230Y-10055412D02*
X15889230Y-9979222D01*
X15889230Y-9979222D02*
X15898753Y-9960174D01*
X15898753Y-9960174D02*
X15917801Y-9950650D01*
X15917801Y-9950650D02*
X15955896Y-9950650D01*
X15955896Y-9950650D02*
X15974944Y-9960174D01*
X15974944Y-9960174D02*
X15984468Y-9979222D01*
X15984468Y-9979222D02*
X15984468Y-9998270D01*
X15984468Y-9998270D02*
X15889230Y-10017317D01*
X16060658Y-10074460D02*
X16079706Y-10083984D01*
X16079706Y-10083984D02*
X16117801Y-10083984D01*
X16117801Y-10083984D02*
X16136849Y-10074460D01*
X16136849Y-10074460D02*
X16146372Y-10055412D01*
X16146372Y-10055412D02*
X16146372Y-10045889D01*
X16146372Y-10045889D02*
X16136849Y-10026841D01*
X16136849Y-10026841D02*
X16117801Y-10017317D01*
X16117801Y-10017317D02*
X16089230Y-10017317D01*
X16089230Y-10017317D02*
X16070182Y-10007793D01*
X16070182Y-10007793D02*
X16060658Y-9988746D01*
X16060658Y-9988746D02*
X16060658Y-9979222D01*
X16060658Y-9979222D02*
X16070182Y-9960174D01*
X16070182Y-9960174D02*
X16089230Y-9950650D01*
X16089230Y-9950650D02*
X16117801Y-9950650D01*
X16117801Y-9950650D02*
X16136849Y-9960174D01*
X16213039Y-10160174D02*
X16222563Y-10150650D01*
X16222563Y-10150650D02*
X16241611Y-10122079D01*
X16241611Y-10122079D02*
X16251134Y-10103031D01*
X16251134Y-10103031D02*
X16260658Y-10074460D01*
X16260658Y-10074460D02*
X16270182Y-10026841D01*
X16270182Y-10026841D02*
X16270182Y-9988746D01*
X16270182Y-9988746D02*
X16260658Y-9941127D01*
X16260658Y-9941127D02*
X16251134Y-9912555D01*
X16251134Y-9912555D02*
X16241611Y-9893508D01*
X16241611Y-9893508D02*
X16222563Y-9864936D01*
X16222563Y-9864936D02*
X16213039Y-9855412D01*
D12*
X11247500Y-10256500D02*
G75*
G02*
X11147500Y-10256500I-50000J0D01*
G01*
X11147500Y-10256500D02*
G75*
G02*
X11247500Y-10256500I50000J0D01*
G01*
D11*
X11613039Y-10347984D02*
X11498753Y-10347984D01*
X11555896Y-10347984D02*
X11555896Y-10147984D01*
X11555896Y-10147984D02*
X11536848Y-10176555D01*
X11536848Y-10176555D02*
X11517801Y-10195603D01*
X11517801Y-10195603D02*
X11498753Y-10205127D01*
X11698753Y-10328936D02*
X11708277Y-10338460D01*
X11708277Y-10338460D02*
X11698753Y-10347984D01*
X11698753Y-10347984D02*
X11689229Y-10338460D01*
X11689229Y-10338460D02*
X11698753Y-10328936D01*
X11698753Y-10328936D02*
X11698753Y-10347984D01*
X11832086Y-10147984D02*
X11851134Y-10147984D01*
X11851134Y-10147984D02*
X11870182Y-10157508D01*
X11870182Y-10157508D02*
X11879705Y-10167031D01*
X11879705Y-10167031D02*
X11889229Y-10186079D01*
X11889229Y-10186079D02*
X11898753Y-10224174D01*
X11898753Y-10224174D02*
X11898753Y-10271793D01*
X11898753Y-10271793D02*
X11889229Y-10309889D01*
X11889229Y-10309889D02*
X11879705Y-10328936D01*
X11879705Y-10328936D02*
X11870182Y-10338460D01*
X11870182Y-10338460D02*
X11851134Y-10347984D01*
X11851134Y-10347984D02*
X11832086Y-10347984D01*
X11832086Y-10347984D02*
X11813039Y-10338460D01*
X11813039Y-10338460D02*
X11803515Y-10328936D01*
X11803515Y-10328936D02*
X11793991Y-10309889D01*
X11793991Y-10309889D02*
X11784467Y-10271793D01*
X11784467Y-10271793D02*
X11784467Y-10224174D01*
X11784467Y-10224174D02*
X11793991Y-10186079D01*
X11793991Y-10186079D02*
X11803515Y-10167031D01*
X11803515Y-10167031D02*
X11813039Y-10157508D01*
X11813039Y-10157508D02*
X11832086Y-10147984D01*
X12022562Y-10147984D02*
X12041610Y-10147984D01*
X12041610Y-10147984D02*
X12060658Y-10157508D01*
X12060658Y-10157508D02*
X12070182Y-10167031D01*
X12070182Y-10167031D02*
X12079705Y-10186079D01*
X12079705Y-10186079D02*
X12089229Y-10224174D01*
X12089229Y-10224174D02*
X12089229Y-10271793D01*
X12089229Y-10271793D02*
X12079705Y-10309889D01*
X12079705Y-10309889D02*
X12070182Y-10328936D01*
X12070182Y-10328936D02*
X12060658Y-10338460D01*
X12060658Y-10338460D02*
X12041610Y-10347984D01*
X12041610Y-10347984D02*
X12022562Y-10347984D01*
X12022562Y-10347984D02*
X12003515Y-10338460D01*
X12003515Y-10338460D02*
X11993991Y-10328936D01*
X11993991Y-10328936D02*
X11984467Y-10309889D01*
X11984467Y-10309889D02*
X11974943Y-10271793D01*
X11974943Y-10271793D02*
X11974943Y-10224174D01*
X11974943Y-10224174D02*
X11984467Y-10186079D01*
X11984467Y-10186079D02*
X11993991Y-10167031D01*
X11993991Y-10167031D02*
X12003515Y-10157508D01*
X12003515Y-10157508D02*
X12022562Y-10147984D01*
X12213039Y-10147984D02*
X12232086Y-10147984D01*
X12232086Y-10147984D02*
X12251134Y-10157508D01*
X12251134Y-10157508D02*
X12260658Y-10167031D01*
X12260658Y-10167031D02*
X12270182Y-10186079D01*
X12270182Y-10186079D02*
X12279705Y-10224174D01*
X12279705Y-10224174D02*
X12279705Y-10271793D01*
X12279705Y-10271793D02*
X12270182Y-10309889D01*
X12270182Y-10309889D02*
X12260658Y-10328936D01*
X12260658Y-10328936D02*
X12251134Y-10338460D01*
X12251134Y-10338460D02*
X12232086Y-10347984D01*
X12232086Y-10347984D02*
X12213039Y-10347984D01*
X12213039Y-10347984D02*
X12193991Y-10338460D01*
X12193991Y-10338460D02*
X12184467Y-10328936D01*
X12184467Y-10328936D02*
X12174943Y-10309889D01*
X12174943Y-10309889D02*
X12165420Y-10271793D01*
X12165420Y-10271793D02*
X12165420Y-10224174D01*
X12165420Y-10224174D02*
X12174943Y-10186079D01*
X12174943Y-10186079D02*
X12184467Y-10167031D01*
X12184467Y-10167031D02*
X12193991Y-10157508D01*
X12193991Y-10157508D02*
X12213039Y-10147984D01*
X12365420Y-10347984D02*
X12365420Y-10214650D01*
X12365420Y-10233698D02*
X12374943Y-10224174D01*
X12374943Y-10224174D02*
X12393991Y-10214650D01*
X12393991Y-10214650D02*
X12422563Y-10214650D01*
X12422563Y-10214650D02*
X12441610Y-10224174D01*
X12441610Y-10224174D02*
X12451134Y-10243222D01*
X12451134Y-10243222D02*
X12451134Y-10347984D01*
X12451134Y-10243222D02*
X12460658Y-10224174D01*
X12460658Y-10224174D02*
X12479705Y-10214650D01*
X12479705Y-10214650D02*
X12508277Y-10214650D01*
X12508277Y-10214650D02*
X12527324Y-10224174D01*
X12527324Y-10224174D02*
X12536848Y-10243222D01*
X12536848Y-10243222D02*
X12536848Y-10347984D01*
X12632086Y-10347984D02*
X12632086Y-10214650D01*
X12632086Y-10233698D02*
X12641610Y-10224174D01*
X12641610Y-10224174D02*
X12660658Y-10214650D01*
X12660658Y-10214650D02*
X12689229Y-10214650D01*
X12689229Y-10214650D02*
X12708277Y-10224174D01*
X12708277Y-10224174D02*
X12717801Y-10243222D01*
X12717801Y-10243222D02*
X12717801Y-10347984D01*
X12717801Y-10243222D02*
X12727324Y-10224174D01*
X12727324Y-10224174D02*
X12746372Y-10214650D01*
X12746372Y-10214650D02*
X12774943Y-10214650D01*
X12774943Y-10214650D02*
X12793991Y-10224174D01*
X12793991Y-10224174D02*
X12803515Y-10243222D01*
X12803515Y-10243222D02*
X12803515Y-10347984D01*
X13193991Y-10138460D02*
X13022563Y-10395603D01*
X13451134Y-10147984D02*
X13470182Y-10147984D01*
X13470182Y-10147984D02*
X13489229Y-10157508D01*
X13489229Y-10157508D02*
X13498753Y-10167031D01*
X13498753Y-10167031D02*
X13508277Y-10186079D01*
X13508277Y-10186079D02*
X13517801Y-10224174D01*
X13517801Y-10224174D02*
X13517801Y-10271793D01*
X13517801Y-10271793D02*
X13508277Y-10309889D01*
X13508277Y-10309889D02*
X13498753Y-10328936D01*
X13498753Y-10328936D02*
X13489229Y-10338460D01*
X13489229Y-10338460D02*
X13470182Y-10347984D01*
X13470182Y-10347984D02*
X13451134Y-10347984D01*
X13451134Y-10347984D02*
X13432086Y-10338460D01*
X13432086Y-10338460D02*
X13422563Y-10328936D01*
X13422563Y-10328936D02*
X13413039Y-10309889D01*
X13413039Y-10309889D02*
X13403515Y-10271793D01*
X13403515Y-10271793D02*
X13403515Y-10224174D01*
X13403515Y-10224174D02*
X13413039Y-10186079D01*
X13413039Y-10186079D02*
X13422563Y-10167031D01*
X13422563Y-10167031D02*
X13432086Y-10157508D01*
X13432086Y-10157508D02*
X13451134Y-10147984D01*
X13603515Y-10328936D02*
X13613039Y-10338460D01*
X13613039Y-10338460D02*
X13603515Y-10347984D01*
X13603515Y-10347984D02*
X13593991Y-10338460D01*
X13593991Y-10338460D02*
X13603515Y-10328936D01*
X13603515Y-10328936D02*
X13603515Y-10347984D01*
X13736848Y-10147984D02*
X13755896Y-10147984D01*
X13755896Y-10147984D02*
X13774944Y-10157508D01*
X13774944Y-10157508D02*
X13784467Y-10167031D01*
X13784467Y-10167031D02*
X13793991Y-10186079D01*
X13793991Y-10186079D02*
X13803515Y-10224174D01*
X13803515Y-10224174D02*
X13803515Y-10271793D01*
X13803515Y-10271793D02*
X13793991Y-10309889D01*
X13793991Y-10309889D02*
X13784467Y-10328936D01*
X13784467Y-10328936D02*
X13774944Y-10338460D01*
X13774944Y-10338460D02*
X13755896Y-10347984D01*
X13755896Y-10347984D02*
X13736848Y-10347984D01*
X13736848Y-10347984D02*
X13717801Y-10338460D01*
X13717801Y-10338460D02*
X13708277Y-10328936D01*
X13708277Y-10328936D02*
X13698753Y-10309889D01*
X13698753Y-10309889D02*
X13689229Y-10271793D01*
X13689229Y-10271793D02*
X13689229Y-10224174D01*
X13689229Y-10224174D02*
X13698753Y-10186079D01*
X13698753Y-10186079D02*
X13708277Y-10167031D01*
X13708277Y-10167031D02*
X13717801Y-10157508D01*
X13717801Y-10157508D02*
X13736848Y-10147984D01*
X13870182Y-10147984D02*
X13993991Y-10147984D01*
X13993991Y-10147984D02*
X13927325Y-10224174D01*
X13927325Y-10224174D02*
X13955896Y-10224174D01*
X13955896Y-10224174D02*
X13974944Y-10233698D01*
X13974944Y-10233698D02*
X13984467Y-10243222D01*
X13984467Y-10243222D02*
X13993991Y-10262270D01*
X13993991Y-10262270D02*
X13993991Y-10309889D01*
X13993991Y-10309889D02*
X13984467Y-10328936D01*
X13984467Y-10328936D02*
X13974944Y-10338460D01*
X13974944Y-10338460D02*
X13955896Y-10347984D01*
X13955896Y-10347984D02*
X13898753Y-10347984D01*
X13898753Y-10347984D02*
X13879706Y-10338460D01*
X13879706Y-10338460D02*
X13870182Y-10328936D01*
X14089229Y-10347984D02*
X14127325Y-10347984D01*
X14127325Y-10347984D02*
X14146372Y-10338460D01*
X14146372Y-10338460D02*
X14155896Y-10328936D01*
X14155896Y-10328936D02*
X14174944Y-10300365D01*
X14174944Y-10300365D02*
X14184467Y-10262270D01*
X14184467Y-10262270D02*
X14184467Y-10186079D01*
X14184467Y-10186079D02*
X14174944Y-10167031D01*
X14174944Y-10167031D02*
X14165420Y-10157508D01*
X14165420Y-10157508D02*
X14146372Y-10147984D01*
X14146372Y-10147984D02*
X14108277Y-10147984D01*
X14108277Y-10147984D02*
X14089229Y-10157508D01*
X14089229Y-10157508D02*
X14079706Y-10167031D01*
X14079706Y-10167031D02*
X14070182Y-10186079D01*
X14070182Y-10186079D02*
X14070182Y-10233698D01*
X14070182Y-10233698D02*
X14079706Y-10252746D01*
X14079706Y-10252746D02*
X14089229Y-10262270D01*
X14089229Y-10262270D02*
X14108277Y-10271793D01*
X14108277Y-10271793D02*
X14146372Y-10271793D01*
X14146372Y-10271793D02*
X14165420Y-10262270D01*
X14165420Y-10262270D02*
X14174944Y-10252746D01*
X14174944Y-10252746D02*
X14184467Y-10233698D01*
X14355896Y-10214650D02*
X14355896Y-10347984D01*
X14308277Y-10138460D02*
X14260658Y-10281317D01*
X14260658Y-10281317D02*
X14384467Y-10281317D01*
X14451134Y-10147984D02*
X14451134Y-10186079D01*
X14527325Y-10147984D02*
X14527325Y-10186079D01*
X14822563Y-10424174D02*
X14813039Y-10414650D01*
X14813039Y-10414650D02*
X14793991Y-10386079D01*
X14793991Y-10386079D02*
X14784468Y-10367031D01*
X14784468Y-10367031D02*
X14774944Y-10338460D01*
X14774944Y-10338460D02*
X14765420Y-10290841D01*
X14765420Y-10290841D02*
X14765420Y-10252746D01*
X14765420Y-10252746D02*
X14774944Y-10205127D01*
X14774944Y-10205127D02*
X14784468Y-10176555D01*
X14784468Y-10176555D02*
X14793991Y-10157508D01*
X14793991Y-10157508D02*
X14813039Y-10128936D01*
X14813039Y-10128936D02*
X14822563Y-10119412D01*
X14984468Y-10214650D02*
X14984468Y-10347984D01*
X14936848Y-10138460D02*
X14889229Y-10281317D01*
X14889229Y-10281317D02*
X15013039Y-10281317D01*
X15241610Y-10347984D02*
X15241610Y-10147984D01*
X15327325Y-10347984D02*
X15327325Y-10243222D01*
X15327325Y-10243222D02*
X15317801Y-10224174D01*
X15317801Y-10224174D02*
X15298753Y-10214650D01*
X15298753Y-10214650D02*
X15270182Y-10214650D01*
X15270182Y-10214650D02*
X15251134Y-10224174D01*
X15251134Y-10224174D02*
X15241610Y-10233698D01*
X15451134Y-10347984D02*
X15432087Y-10338460D01*
X15432087Y-10338460D02*
X15422563Y-10328936D01*
X15422563Y-10328936D02*
X15413039Y-10309889D01*
X15413039Y-10309889D02*
X15413039Y-10252746D01*
X15413039Y-10252746D02*
X15422563Y-10233698D01*
X15422563Y-10233698D02*
X15432087Y-10224174D01*
X15432087Y-10224174D02*
X15451134Y-10214650D01*
X15451134Y-10214650D02*
X15479706Y-10214650D01*
X15479706Y-10214650D02*
X15498753Y-10224174D01*
X15498753Y-10224174D02*
X15508277Y-10233698D01*
X15508277Y-10233698D02*
X15517801Y-10252746D01*
X15517801Y-10252746D02*
X15517801Y-10309889D01*
X15517801Y-10309889D02*
X15508277Y-10328936D01*
X15508277Y-10328936D02*
X15498753Y-10338460D01*
X15498753Y-10338460D02*
X15479706Y-10347984D01*
X15479706Y-10347984D02*
X15451134Y-10347984D01*
X15632087Y-10347984D02*
X15613039Y-10338460D01*
X15613039Y-10338460D02*
X15603515Y-10319412D01*
X15603515Y-10319412D02*
X15603515Y-10147984D01*
X15784468Y-10338460D02*
X15765420Y-10347984D01*
X15765420Y-10347984D02*
X15727325Y-10347984D01*
X15727325Y-10347984D02*
X15708277Y-10338460D01*
X15708277Y-10338460D02*
X15698753Y-10319412D01*
X15698753Y-10319412D02*
X15698753Y-10243222D01*
X15698753Y-10243222D02*
X15708277Y-10224174D01*
X15708277Y-10224174D02*
X15727325Y-10214650D01*
X15727325Y-10214650D02*
X15765420Y-10214650D01*
X15765420Y-10214650D02*
X15784468Y-10224174D01*
X15784468Y-10224174D02*
X15793991Y-10243222D01*
X15793991Y-10243222D02*
X15793991Y-10262270D01*
X15793991Y-10262270D02*
X15698753Y-10281317D01*
X15870182Y-10338460D02*
X15889230Y-10347984D01*
X15889230Y-10347984D02*
X15927325Y-10347984D01*
X15927325Y-10347984D02*
X15946372Y-10338460D01*
X15946372Y-10338460D02*
X15955896Y-10319412D01*
X15955896Y-10319412D02*
X15955896Y-10309889D01*
X15955896Y-10309889D02*
X15946372Y-10290841D01*
X15946372Y-10290841D02*
X15927325Y-10281317D01*
X15927325Y-10281317D02*
X15898753Y-10281317D01*
X15898753Y-10281317D02*
X15879706Y-10271793D01*
X15879706Y-10271793D02*
X15870182Y-10252746D01*
X15870182Y-10252746D02*
X15870182Y-10243222D01*
X15870182Y-10243222D02*
X15879706Y-10224174D01*
X15879706Y-10224174D02*
X15898753Y-10214650D01*
X15898753Y-10214650D02*
X15927325Y-10214650D01*
X15927325Y-10214650D02*
X15946372Y-10224174D01*
X16022563Y-10424174D02*
X16032087Y-10414650D01*
X16032087Y-10414650D02*
X16051134Y-10386079D01*
X16051134Y-10386079D02*
X16060658Y-10367031D01*
X16060658Y-10367031D02*
X16070182Y-10338460D01*
X16070182Y-10338460D02*
X16079706Y-10290841D01*
X16079706Y-10290841D02*
X16079706Y-10252746D01*
X16079706Y-10252746D02*
X16070182Y-10205127D01*
X16070182Y-10205127D02*
X16060658Y-10176555D01*
X16060658Y-10176555D02*
X16051134Y-10157508D01*
X16051134Y-10157508D02*
X16032087Y-10128936D01*
X16032087Y-10128936D02*
X16022563Y-10119412D01*
M02*
